<svg>
    <symbol id="phone" width="20" height="20" viewBox="0 0 20 20" fill="none" xmlns="http://www.w3.org/2000/svg">
        <path d="M15.3693 19.9998C11.2947 19.9945 7.38854 18.3704 4.50738 15.4835C1.62623 12.5966 0.00528135 8.6827 0 4.60005C0 3.38007 0.483674 2.21006 1.34462 1.3474C2.20556 0.484749 3.37326 0.000114293 4.59082 0.000114293C4.84864 -0.00185348 5.10604 0.0215923 5.35928 0.0701132C5.6041 0.106413 5.84478 0.166701 6.07784 0.250111C6.24176 0.307739 6.38783 0.407242 6.5016 0.538779C6.61538 0.670316 6.69291 0.829331 6.72655 1.0001L8.09381 7.00001C8.13066 7.16287 8.12623 7.33239 8.0809 7.49309C8.03557 7.65379 7.95081 7.80056 7.83433 7.92C7.70459 8.06 7.69461 8.07 6.46706 8.70999C7.45009 10.8708 9.17485 12.6061 11.3273 13.5999C11.976 12.3599 11.986 12.3499 12.1257 12.2199C12.245 12.1032 12.3914 12.0183 12.5518 11.9729C12.7122 11.9275 12.8814 11.923 13.0439 11.9599L19.0319 13.3299C19.1969 13.3683 19.3494 13.4481 19.4751 13.5618C19.6008 13.6755 19.6956 13.8194 19.7505 13.9799C19.8347 14.2173 19.8982 14.4615 19.9401 14.7099C19.9803 14.9612 20.0003 15.2154 20 15.4699C19.9816 16.6847 19.4843 17.8428 18.6167 18.6915C17.7491 19.5402 16.5817 20.0105 15.3693 19.9998Z" fill="#24173D"/>
    </symbol>
    <symbol id="ell" width="2" height="80" viewBox="0 0 2 80" fill="none" xmlns="http://www.w3.org/2000/svg">
        <ellipse cx="1" cy="40" rx="1" ry="40" fill="#3B393C"/>
    </symbol>
    <symbol id="ell2" width="462" height="2" viewBox="0 0 462 2" fill="none" xmlns="http://www.w3.org/2000/svg">
        <ellipse cx="231" cy="1" rx="0.99999" ry="231" transform="rotate(-90 231 1)" fill="white"/>
    </symbol>
    <symbol id="ell3" width="5" height="263" viewBox="0 0 5 263" fill="none" xmlns="http://www.w3.org/2000/svg">
        <rect width="5" height="263" fill="#24173D"/>
    </symbol>
</svg>