<svg>
    <symbol id="logo" width="206" height="80" viewBox="0 0 206 80" fill="none" xmlns="http://www.w3.org/2000/svg">
        <g clip-path="url(#clip0_3_827)">
        <path d="M24.8815 57.2274C20.3038 57.2274 16.1838 56.2311 12.5215 54.2384C8.85931 52.1918 5.978 49.149 3.87761 45.1098C1.77722 41.0167 0.727023 35.9542 0.727023 29.9223C0.727023 24.1058 1.80415 19.1511 3.9584 15.058C6.1665 10.9111 9.34402 7.76047 13.4909 5.60622C17.6379 3.39811 22.5926 2.29406 28.3553 2.29406C34.9257 2.29406 40.1767 3.45197 44.1082 5.76779C48.0936 8.0836 51.1364 11.7997 53.2368 16.916L35.7066 23.2172C35.3296 20.686 34.4949 18.9356 33.2023 17.9662C31.9636 16.943 30.4018 16.4313 28.5168 16.4313C26.4703 16.4313 24.8007 16.916 23.5082 17.8854C22.2695 18.8548 21.354 20.3359 20.7615 22.3286C20.223 24.2674 19.9537 26.7448 19.9537 29.7607C19.9537 33.0998 20.3038 35.7926 21.0039 37.8392C21.7579 39.8857 22.8619 41.3667 24.316 42.2823C25.824 43.144 27.709 43.5748 29.9709 43.5748C31.0481 43.5748 32.0175 43.4671 32.8792 43.2517C33.7947 43.0363 34.5757 42.7131 35.2219 42.2823C35.9221 41.7976 36.4337 41.2052 36.7568 40.505C37.1338 39.8049 37.3223 38.9701 37.3223 38.0007V37.9199H28.3553V26.3678H53.0753V56.4196H40.6345L39.0996 42.1207L42.0078 45.2713C41.0923 49.0951 39.1804 52.0572 36.2721 54.1576C33.4177 56.2041 29.6209 57.2274 24.8815 57.2274ZM109.194 3.1019C113.988 3.1019 118.054 3.82896 121.393 5.28308C124.732 6.7372 127.263 8.86452 128.987 11.665C130.71 14.4656 131.572 17.8854 131.572 21.9247C131.572 25.9639 130.71 29.3837 128.987 32.1843C127.263 34.9848 124.732 37.1121 121.393 38.5662C118.054 40.0203 113.988 40.7474 109.194 40.7474H99.7427V56.4196H80.92V3.1019H109.194ZM106.125 27.418C108.171 27.418 109.787 26.9871 110.972 26.1254C112.157 25.2099 112.749 23.8096 112.749 21.9247C112.749 20.0397 112.157 18.6664 110.972 17.8047C109.787 16.8891 108.171 16.4313 106.125 16.4313H99.7427V27.418H106.125ZM181.501 2.29406C186.617 2.29406 191.195 2.94034 195.234 4.23288C199.327 5.47158 202.936 7.35654 206.059 9.88779L198.466 22.0054C195.934 20.2282 193.268 18.801 190.468 17.7239C187.721 16.6467 184.732 16.1082 181.501 16.1082C180.101 16.1082 178.97 16.2159 178.108 16.4313C177.3 16.6467 176.708 16.943 176.331 17.3199C176.008 17.6969 175.846 18.1278 175.846 18.6125C175.846 19.2588 176.331 19.7435 177.3 20.0666C178.323 20.3897 179.589 20.7398 181.097 21.1168L188.448 22.8133C193.888 24.052 197.981 25.8831 200.728 28.3066C203.528 30.7301 204.928 34.0962 204.928 38.4047C204.928 42.7131 203.878 46.2677 201.778 49.0682C199.677 51.8148 196.823 53.8614 193.215 55.2078C189.66 56.5542 185.621 57.2274 181.097 57.2274C177.704 57.2274 174.311 56.9312 170.918 56.3388C167.525 55.6925 164.375 54.7769 161.466 53.5921C158.558 52.3534 156.054 50.8724 153.953 49.149L161.386 36.789C162.947 38.0277 164.832 39.1586 167.04 40.1819C169.249 41.1513 171.537 41.9322 173.907 42.5247C176.277 43.1171 178.485 43.4133 180.531 43.4133C181.824 43.4133 182.847 43.3056 183.601 43.0901C184.355 42.8747 184.867 42.6054 185.136 42.2823C185.459 41.9053 185.621 41.4745 185.621 40.9897C185.621 40.2358 185.298 39.6703 184.651 39.2933C184.059 38.9163 182.955 38.5393 181.339 38.1623L173.261 36.385C170.406 35.7388 167.687 34.8771 165.102 33.7999C162.517 32.7228 160.416 31.161 158.8 29.1145C157.185 27.0141 156.377 24.1866 156.377 20.6321C156.377 16.9699 157.346 13.7654 159.285 11.0188C161.278 8.2721 164.132 6.14478 167.848 4.63681C171.618 3.07498 176.169 2.29406 181.501 2.29406Z" fill="url(#paint0_linear_3_827)"/>
        <path d="M5.28008 75.9488C4.52179 75.9488 3.84535 75.7808 3.25078 75.4447C2.66482 75.1087 2.20812 74.6132 1.88068 73.9583C1.55323 73.3034 1.38951 72.5063 1.38951 71.5671C1.38951 70.6451 1.56185 69.8566 1.90653 69.2017C2.25121 68.5468 2.74238 68.0427 3.38003 67.6894C4.02631 67.3361 4.7846 67.1595 5.65492 67.1595C6.62002 67.1595 7.39986 67.3361 7.99443 67.6894C8.58901 68.0341 9.05002 68.5856 9.37746 69.3439L7.32231 70.1582C7.21029 69.7187 7.0121 69.3999 6.72774 69.2017C6.44338 69.0035 6.09008 68.9044 5.66785 68.9044C5.24561 68.9044 4.8837 69.0078 4.5821 69.2147C4.28051 69.4128 4.05216 69.7101 3.89705 70.1065C3.74195 70.4943 3.66439 70.9768 3.66439 71.5542C3.66439 72.1574 3.74195 72.6615 3.89705 73.0665C4.06078 73.4714 4.29774 73.773 4.60796 73.9712C4.92678 74.1608 5.31886 74.2556 5.78418 74.2556C6.03407 74.2556 6.26242 74.2254 6.46923 74.1651C6.67603 74.1048 6.85699 74.0186 7.0121 73.9066C7.1672 73.786 7.28784 73.6395 7.37401 73.4671C7.46018 73.2862 7.50327 73.0751 7.50327 72.8338V72.7045H5.55152V71.2181H9.39039V75.8196H7.87811L7.71007 73.8161L8.07199 74.1263C7.89103 74.7123 7.56358 75.1647 7.08965 75.4835C6.62433 75.7937 6.02114 75.9488 5.28008 75.9488ZM14.9181 67.1595C15.7798 67.1595 16.5208 67.3361 17.1412 67.6894C17.7703 68.0341 18.2528 68.5339 18.5889 69.1888C18.925 69.8437 19.093 70.6321 19.093 71.5542C19.093 72.4762 18.925 73.2646 18.5889 73.9195C18.2528 74.5744 17.7703 75.0785 17.1412 75.4318C16.5208 75.7765 15.7798 75.9488 14.9181 75.9488C14.0564 75.9488 13.311 75.7765 12.6819 75.4318C12.0529 75.0785 11.5704 74.5744 11.2343 73.9195C10.8982 73.2646 10.7302 72.4762 10.7302 71.5542C10.7302 70.6321 10.8982 69.8437 11.2343 69.1888C11.5704 68.5339 12.0529 68.0341 12.6819 67.6894C13.311 67.3361 14.0564 67.1595 14.9181 67.1595ZM14.9181 68.9044C14.5044 68.9044 14.1555 69.0035 13.8711 69.2017C13.5867 69.3999 13.3713 69.6972 13.2248 70.0936C13.0783 70.4814 13.0051 70.9682 13.0051 71.5542C13.0051 72.1315 13.0783 72.6184 13.2248 73.0147C13.3713 73.4111 13.5867 73.7084 13.8711 73.9066C14.1555 74.1048 14.5044 74.2039 14.9181 74.2039C15.3317 74.2039 15.6763 74.1048 15.9521 73.9066C16.2365 73.7084 16.4519 73.4111 16.5984 73.0147C16.7449 72.6184 16.8181 72.1315 16.8181 71.5542C16.8181 70.9682 16.7449 70.4814 16.5984 70.0936C16.4519 69.6972 16.2365 69.3999 15.9521 69.2017C15.6763 69.0035 15.3317 68.9044 14.9181 68.9044ZM22.8453 74.1005H27.1237V75.8196H20.6221V67.2888H22.8453V74.1005ZM32.0168 67.2888C33.3524 67.2888 34.3735 67.6593 35.0801 68.4003C35.7953 69.1414 36.1529 70.1927 36.1529 71.5542C36.1529 72.9157 35.7953 73.9669 35.0801 74.708C34.3735 75.449 33.3524 75.8196 32.0168 75.8196H28.3976V67.2888H32.0168ZM31.797 74.1393C32.5209 74.1393 33.0465 73.9238 33.3739 73.493C33.71 73.0535 33.878 72.4073 33.878 71.5542C33.878 70.7011 33.71 70.0591 33.3739 69.6283C33.0465 69.1888 32.5209 68.9691 31.797 68.9691H30.6208V74.1393H31.797ZM37.6752 75.8196V67.2888H44.3189V69.0078H39.8984V70.7399H43.4141V72.3555H39.8984V74.1005H44.4869V75.8196H37.6752ZM53.52 67.2888V75.8196H51.0513L48.4015 71.2052L47.7553 69.9385H47.7423L47.794 71.5154V75.8196H45.8294V67.2888H48.2981L50.9479 71.9032L51.5941 73.1699H51.6071L51.5554 71.5929V67.2888H53.52ZM63.0247 67.2888C63.7227 67.2888 64.3173 67.4008 64.8084 67.6248C65.2996 67.8489 65.6744 68.172 65.9329 68.5942C66.1915 69.0165 66.3207 69.5292 66.3207 70.1324C66.3207 70.7356 66.1915 71.2483 65.9329 71.6705C65.6744 72.0927 65.2996 72.4159 64.8084 72.6399C64.3173 72.864 63.7227 72.976 63.0247 72.976H61.3315V75.8196H59.1083V67.2888H63.0247ZM62.6757 71.3086C63.141 71.3086 63.49 71.2138 63.7227 71.0242C63.964 70.826 64.0846 70.5287 64.0846 70.1324C64.0846 69.736 63.964 69.443 63.7227 69.2534C63.49 69.0552 63.141 68.9561 62.6757 68.9561H61.3315V71.3086H62.6757ZM71.8136 67.2888C72.8304 67.2888 73.6189 67.53 74.179 68.0126C74.7477 68.4865 75.0321 69.1199 75.0321 69.9126C75.0321 70.7829 74.752 71.4465 74.1919 71.9032C73.6318 72.3599 72.8434 72.5882 71.8266 72.5882L71.6198 72.7045H69.9265V75.8196H67.7421V67.2888H71.8136ZM71.5034 71.1276C71.9343 71.1276 72.2574 71.0415 72.4728 70.8691C72.6883 70.6968 72.796 70.421 72.796 70.0419C72.796 69.6714 72.6883 69.3999 72.4728 69.2276C72.2574 69.0552 71.9343 68.9691 71.5034 68.9691H69.9265V71.1276H71.5034ZM72.8089 71.5929L75.5362 75.8196H73.0803L70.8959 72.0841L72.8089 71.5929ZM80.3912 67.1595C81.2529 67.1595 81.994 67.3361 82.6144 67.6894C83.2434 68.0341 83.726 68.5339 84.0621 69.1888C84.3981 69.8437 84.5662 70.6321 84.5662 71.5542C84.5662 72.4762 84.3981 73.2646 84.0621 73.9195C83.726 74.5744 83.2434 75.0785 82.6144 75.4318C81.994 75.7765 81.2529 75.9488 80.3912 75.9488C79.5295 75.9488 78.7841 75.7765 78.1551 75.4318C77.5261 75.0785 77.0435 74.5744 76.7075 73.9195C76.3714 73.2646 76.2034 72.4762 76.2034 71.5542C76.2034 70.6321 76.3714 69.8437 76.7075 69.1888C77.0435 68.5339 77.5261 68.0341 78.1551 67.6894C78.7841 67.3361 79.5295 67.1595 80.3912 67.1595ZM80.3912 68.9044C79.9776 68.9044 79.6286 69.0035 79.3443 69.2017C79.0599 69.3999 78.8445 69.6972 78.698 70.0936C78.5515 70.4814 78.4782 70.9682 78.4782 71.5542C78.4782 72.1315 78.5515 72.6184 78.698 73.0147C78.8445 73.4111 79.0599 73.7084 79.3443 73.9066C79.6286 74.1048 79.9776 74.2039 80.3912 74.2039C80.8048 74.2039 81.1495 74.1048 81.4253 73.9066C81.7096 73.7084 81.925 73.4111 82.0715 73.0147C82.218 72.6184 82.2913 72.1315 82.2913 71.5542C82.2913 70.9682 82.218 70.4814 82.0715 70.0936C81.925 69.6972 81.7096 69.3999 81.4253 69.2017C81.1495 69.0035 80.8048 68.9044 80.3912 68.9044ZM90.0117 67.2888C90.7097 67.2888 91.3043 67.4008 91.7954 67.6248C92.2866 67.8489 92.6614 68.172 92.92 68.5942C93.1785 69.0165 93.3077 69.5292 93.3077 70.1324C93.3077 70.7356 93.1785 71.2483 92.92 71.6705C92.6614 72.0927 92.2866 72.4159 91.7954 72.6399C91.3043 72.864 90.7097 72.976 90.0117 72.976H88.3185V75.8196H86.0953V67.2888H90.0117ZM89.6627 71.3086C90.128 71.3086 90.477 71.2138 90.7097 71.0242C90.951 70.826 91.0716 70.5287 91.0716 70.1324C91.0716 69.736 90.951 69.443 90.7097 69.2534C90.477 69.0552 90.128 68.9561 89.6627 68.9561H88.3185V71.3086H89.6627ZM94.7291 75.8196V67.2888H101.373V69.0078H96.9523V70.7399H100.468V72.3555H96.9523V74.1005H101.541V75.8196H94.7291ZM106.955 67.2888C107.972 67.2888 108.76 67.53 109.32 68.0126C109.889 68.4865 110.173 69.1199 110.173 69.9126C110.173 70.7829 109.893 71.4465 109.333 71.9032C108.773 72.3599 107.985 72.5882 106.968 72.5882L106.761 72.7045H105.068V75.8196H102.883V67.2888H106.955ZM106.645 71.1276C107.075 71.1276 107.399 71.0415 107.614 70.8691C107.829 70.6968 107.937 70.421 107.937 70.0419C107.937 69.6714 107.829 69.3999 107.614 69.2276C107.399 69.0552 107.075 68.9691 106.645 68.9691H105.068V71.1276H106.645ZM107.95 71.5929L110.677 75.8196H108.222L106.037 72.0841L107.95 71.5929ZM118.867 67.2888V69.0078H116.088V75.8196H113.865V69.0078H111.073V67.2888H118.867ZM127.33 67.2888L124.319 72.7045V75.8196H122.096V72.7045L119.084 67.2888H121.385L122.587 69.6283L123.22 71.0501L123.866 69.6283L125.068 67.2888H127.33ZM135.061 67.1595C135.853 67.1595 136.551 67.2844 137.155 67.5343C137.766 67.7756 138.296 68.1332 138.744 68.6072L137.672 70.0419C137.301 69.6541 136.9 69.3655 136.469 69.1759C136.047 68.9777 135.565 68.8786 135.022 68.8786C134.703 68.8786 134.444 68.9131 134.246 68.982C134.048 69.0509 133.906 69.1457 133.82 69.2664C133.734 69.387 133.69 69.5249 133.69 69.68C133.69 69.8609 133.772 70.016 133.936 70.1453C134.108 70.2659 134.384 70.3693 134.763 70.4555L136.198 70.7786C137.051 70.9768 137.676 71.2655 138.072 71.6446C138.469 72.0238 138.667 72.5279 138.667 73.1569C138.667 73.7601 138.512 74.2728 138.201 74.6951C137.891 75.1087 137.465 75.4232 136.922 75.6386C136.379 75.8454 135.759 75.9488 135.061 75.9488C134.492 75.9488 133.949 75.8885 133.432 75.7679C132.915 75.6386 132.45 75.4577 132.036 75.225C131.622 74.9923 131.273 74.7252 130.989 74.4236L132.062 72.9372C132.277 73.1871 132.54 73.4111 132.85 73.6093C133.169 73.7989 133.514 73.9497 133.884 74.0617C134.264 74.1737 134.647 74.2297 135.035 74.2297C135.336 74.2297 135.586 74.1996 135.784 74.1393C135.991 74.0789 136.142 73.9885 136.237 73.8678C136.332 73.7472 136.379 73.605 136.379 73.4413C136.379 73.2603 136.314 73.1095 136.185 72.9889C136.056 72.8596 135.81 72.7519 135.448 72.6658L133.871 72.3168C133.389 72.2048 132.958 72.0583 132.579 71.8773C132.208 71.6877 131.915 71.4378 131.7 71.1276C131.485 70.8088 131.377 70.4124 131.377 69.9385C131.377 69.4042 131.523 68.9303 131.816 68.5167C132.109 68.0944 132.532 67.7627 133.083 67.5214C133.634 67.2801 134.294 67.1595 135.061 67.1595ZM143.883 67.1595C144.744 67.1595 145.485 67.3361 146.106 67.6894C146.735 68.0341 147.217 68.5339 147.553 69.1888C147.89 69.8437 148.058 70.6321 148.058 71.5542C148.058 72.4762 147.89 73.2646 147.553 73.9195C147.217 74.5744 146.735 75.0785 146.106 75.4318C145.485 75.7765 144.744 75.9488 143.883 75.9488C143.021 75.9488 142.276 75.7765 141.647 75.4318C141.017 75.0785 140.535 74.5744 140.199 73.9195C139.863 73.2646 139.695 72.4762 139.695 71.5542C139.695 70.6321 139.863 69.8437 140.199 69.1888C140.535 68.5339 141.017 68.0341 141.647 67.6894C142.276 67.3361 143.021 67.1595 143.883 67.1595ZM143.883 68.9044C143.469 68.9044 143.12 69.0035 142.836 69.2017C142.551 69.3999 142.336 69.6972 142.189 70.0936C142.043 70.4814 141.97 70.9682 141.97 71.5542C141.97 72.1315 142.043 72.6184 142.189 73.0147C142.336 73.4111 142.551 73.7084 142.836 73.9066C143.12 74.1048 143.469 74.2039 143.883 74.2039C144.296 74.2039 144.641 74.1048 144.917 73.9066C145.201 73.7084 145.416 73.4111 145.563 73.0147C145.709 72.6184 145.783 72.1315 145.783 71.5542C145.783 70.9682 145.709 70.4814 145.563 70.0936C145.416 69.6972 145.201 69.3999 144.917 69.2017C144.641 69.0035 144.296 68.9044 143.883 68.9044ZM157.045 67.2888V72.3426C157.045 73.549 156.722 74.4538 156.075 75.057C155.438 75.6515 154.49 75.9488 153.232 75.9488C151.982 75.9488 151.034 75.6515 150.388 75.057C149.742 74.4538 149.419 73.549 149.419 72.3426V67.2888H151.655V72.3814C151.655 72.9932 151.784 73.4499 152.043 73.7515C152.31 74.0531 152.706 74.2039 153.232 74.2039C153.766 74.2039 154.162 74.0531 154.421 73.7515C154.688 73.4499 154.822 72.9932 154.822 72.3814V67.2888H157.045ZM160.986 74.1005H165.265V75.8196H158.763V67.2888H160.986V74.1005ZM173.921 67.2888V72.3426C173.921 73.549 173.598 74.4538 172.952 75.057C172.314 75.6515 171.366 75.9488 170.108 75.9488C168.859 75.9488 167.911 75.6515 167.264 75.057C166.618 74.4538 166.295 73.549 166.295 72.3426V67.2888H168.531V72.3814C168.531 72.9932 168.66 73.4499 168.919 73.7515C169.186 74.0531 169.582 74.2039 170.108 74.2039C170.642 74.2039 171.039 74.0531 171.297 73.7515C171.564 73.4499 171.698 72.9932 171.698 72.3814V67.2888H173.921ZM182.813 67.2888V69.0078H180.034V75.8196H177.811V69.0078H175.019V67.2888H182.813ZM186.307 67.2888V75.8196H184.084V67.2888H186.307ZM192.025 67.1595C192.887 67.1595 193.628 67.3361 194.248 67.6894C194.877 68.0341 195.36 68.5339 195.696 69.1888C196.032 69.8437 196.2 70.6321 196.2 71.5542C196.2 72.4762 196.032 73.2646 195.696 73.9195C195.36 74.5744 194.877 75.0785 194.248 75.4318C193.628 75.7765 192.887 75.9488 192.025 75.9488C191.163 75.9488 190.418 75.7765 189.789 75.4318C189.16 75.0785 188.677 74.5744 188.341 73.9195C188.005 73.2646 187.837 72.4762 187.837 71.5542C187.837 70.6321 188.005 69.8437 188.341 69.1888C188.677 68.5339 189.16 68.0341 189.789 67.6894C190.418 67.3361 191.163 67.1595 192.025 67.1595ZM192.025 68.9044C191.611 68.9044 191.262 69.0035 190.978 69.2017C190.694 69.3999 190.478 69.6972 190.332 70.0936C190.185 70.4814 190.112 70.9682 190.112 71.5542C190.112 72.1315 190.185 72.6184 190.332 73.0147C190.478 73.4111 190.694 73.7084 190.978 73.9066C191.262 74.1048 191.611 74.2039 192.025 74.2039C192.439 74.2039 192.783 74.1048 193.059 73.9066C193.343 73.7084 193.559 73.4111 193.705 73.0147C193.852 72.6184 193.925 72.1315 193.925 71.5542C193.925 70.9682 193.852 70.4814 193.705 70.0936C193.559 69.6972 193.343 69.3999 193.059 69.2017C192.783 69.0035 192.439 68.9044 192.025 68.9044ZM205.42 67.2888V75.8196H202.951L200.301 71.2052L199.655 69.9385H199.642L199.694 71.5154V75.8196H197.729V67.2888H200.198L202.848 71.9032L203.494 73.1699H203.507L203.455 71.5929V67.2888H205.42Z" fill="#24173D"/>
        <path d="M3.25078 75.4447L2.75326 76.3122L2.75872 76.3153L3.25078 75.4447ZM1.90653 69.2017L1.02161 68.736L1.02161 68.736L1.90653 69.2017ZM3.38003 67.6894L2.90035 66.812L2.8954 66.8147L3.38003 67.6894ZM7.99443 67.6894L7.48358 68.5492L7.4929 68.5546L7.99443 67.6894ZM9.37746 69.3439L9.74583 70.2736L10.7042 69.8939L10.2955 68.9475L9.37746 69.3439ZM7.32231 70.1582L6.35329 70.4052L6.63403 71.5066L7.69067 71.0879L7.32231 70.1582ZM6.72774 69.2017L7.29953 68.3813H7.29953L6.72774 69.2017ZM4.5821 69.2147L5.13128 70.0504L5.13951 70.045L5.14763 70.0394L4.5821 69.2147ZM3.89705 70.1065L4.82556 70.4779L4.8283 70.4709L3.89705 70.1065ZM3.89705 73.0665L2.9632 73.4241L2.96649 73.4327L2.96994 73.4412L3.89705 73.0665ZM4.60796 73.9712L4.06957 74.8139L4.08309 74.8226L4.09688 74.8308L4.60796 73.9712ZM6.46923 74.1651L6.18923 73.2051L6.46923 74.1651ZM7.0121 73.9066L7.59759 74.7173L7.612 74.7069L7.62604 74.696L7.0121 73.9066ZM7.37401 73.4671L8.26844 73.9144L8.27274 73.9058L8.27687 73.8971L7.37401 73.4671ZM7.50327 72.7045H8.50327V71.7045H7.50327V72.7045ZM5.55152 72.7045H4.55152V73.7045H5.55152V72.7045ZM5.55152 71.2181V70.2181H4.55152V71.2181H5.55152ZM9.39039 71.2181H10.3904V70.2181H9.39039V71.2181ZM9.39039 75.8196V76.8196H10.3904V75.8196H9.39039ZM7.87811 75.8196L6.8816 75.9032L6.95847 76.8196H7.87811V75.8196ZM7.71007 73.8161L8.36087 73.0569L6.50981 71.4703L6.71357 73.8997L7.71007 73.8161ZM8.07199 74.1263L9.02746 74.4214L9.22114 73.7943L8.72278 73.3671L8.07199 74.1263ZM7.08965 75.4835L7.64435 76.3156L7.64783 76.3132L7.08965 75.4835ZM5.28008 74.9488C4.67477 74.9488 4.17123 74.8163 3.74284 74.5742L2.75872 76.3153C3.51948 76.7453 4.3688 76.9488 5.28008 76.9488V74.9488ZM3.74829 74.5773C3.34752 74.3474 3.02223 74.0053 2.7751 73.5111L0.98625 74.4055C1.39402 75.2211 1.98212 75.8699 2.75327 76.3122L3.74829 74.5773ZM2.7751 73.5111C2.53389 73.0287 2.38951 72.3936 2.38951 71.5671H0.389508C0.389508 72.6191 0.572576 73.5782 0.98625 74.4055L2.7751 73.5111ZM2.38951 71.5671C2.38951 70.7682 2.5387 70.1477 2.79145 69.6675L1.02161 68.736C0.584995 69.5656 0.389508 70.522 0.389508 71.5671H2.38951ZM2.79145 69.6675C3.04685 69.1822 3.40016 68.8215 3.86467 68.5642L2.8954 66.8147C2.08459 67.264 1.45556 67.9115 1.02161 68.736L2.79145 69.6675ZM3.85971 68.5669C4.33428 68.3075 4.92176 68.1595 5.65492 68.1595V66.1595C4.64745 66.1595 3.71834 66.3648 2.90036 66.812L3.85971 68.5669ZM5.65492 68.1595C6.50803 68.1595 7.093 68.317 7.48361 68.5491L8.50526 66.8298C7.70672 66.3553 6.73202 66.1595 5.65492 66.1595V68.1595ZM7.4929 68.5546C7.86691 68.7714 8.19935 69.1381 8.4594 69.7403L10.2955 68.9475C9.90069 68.0331 9.31111 67.2969 8.49597 66.8243L7.4929 68.5546ZM9.0091 68.4142L6.95394 69.2285L7.69067 71.0879L9.74583 70.2736L9.0091 68.4142ZM8.29132 69.9112C8.13862 69.3122 7.83492 68.7545 7.29953 68.3813L6.15594 70.0221C6.18928 70.0454 6.28195 70.1253 6.35329 70.4052L8.29132 69.9112ZM7.29953 68.3813C6.81375 68.0428 6.24928 67.9044 5.66785 67.9044V69.9044C5.93088 69.9044 6.073 69.9643 6.15594 70.0221L7.29953 68.3813ZM5.66785 67.9044C5.07589 67.9044 4.50935 68.052 4.01658 68.3899L5.14763 70.0394C5.25805 69.9637 5.41534 69.9044 5.66785 69.9044V67.9044ZM4.03293 68.3789C3.52886 68.7102 3.18248 69.1884 2.96581 69.7421L4.8283 70.4709C4.92184 70.2319 5.03216 70.1155 5.13128 70.0504L4.03293 68.3789ZM2.96858 69.7351C2.75189 70.2768 2.66439 70.8949 2.66439 71.5542H4.66439C4.66439 71.0587 4.732 70.7117 4.82553 70.4779L2.96858 69.7351ZM2.66439 71.5542C2.66439 72.2353 2.75091 72.8698 2.9632 73.4241L4.83091 72.7088C4.73299 72.4531 4.66439 72.0794 4.66439 71.5542H2.66439ZM2.96994 73.4412C3.1966 74.0019 3.55357 74.4843 4.06957 74.8139L5.14635 73.1285C5.04192 73.0618 4.92495 72.941 4.82416 72.6917L2.96994 73.4412ZM4.09688 74.8308C4.60511 75.133 5.18426 75.2556 5.78418 75.2556V73.2556C5.45346 73.2556 5.24846 73.1887 5.11903 73.1117L4.09688 74.8308ZM5.78418 75.2556C6.11405 75.2556 6.43828 75.2158 6.74923 75.1251L6.18923 73.2051C6.08656 73.2351 5.95409 73.2556 5.78418 73.2556V75.2556ZM6.74923 75.1251C7.05197 75.0368 7.33904 74.904 7.59759 74.7173L6.42661 73.0959C6.37494 73.1332 6.30009 73.1728 6.18923 73.2051L6.74923 75.1251ZM7.62604 74.696C7.8966 74.4855 8.11414 74.223 8.26844 73.9144L6.47958 73.0199C6.46154 73.056 6.43781 73.0864 6.39816 73.1173L7.62604 74.696ZM8.27687 73.8971C8.4387 73.5572 8.50327 73.1939 8.50327 72.8338H6.50327C6.50327 72.9562 6.48166 73.0151 6.47115 73.0372L8.27687 73.8971ZM8.50327 72.8338V72.7045H6.50327V72.8338H8.50327ZM7.50327 71.7045H5.55152V73.7045H7.50327V71.7045ZM6.55152 72.7045V71.2181H4.55152V72.7045H6.55152ZM5.55152 72.2181H9.39039V70.2181H5.55152V72.2181ZM8.39039 71.2181V75.8196H10.3904V71.2181H8.39039ZM9.39039 74.8196H7.87811V76.8196H9.39039V74.8196ZM8.87461 75.736L8.70657 73.7326L6.71357 73.8997L6.8816 75.9032L8.87461 75.736ZM7.05928 74.5754L7.4212 74.8856L8.72278 73.3671L8.36087 73.0569L7.05928 74.5754ZM7.11651 73.8313C6.99767 74.2161 6.80131 74.4723 6.53147 74.6538L7.64783 76.3132C8.32586 75.8571 8.78439 75.2085 9.02746 74.4214L7.11651 73.8313ZM6.53495 74.6515C6.2795 74.8218 5.88676 74.9488 5.28008 74.9488V76.9488C6.15552 76.9488 6.96916 76.7657 7.64435 76.3156L6.53495 74.6515ZM17.1412 67.6894L16.6464 68.5584L16.6535 68.5625L16.6607 68.5664L17.1412 67.6894ZM18.5889 69.1888L19.4786 68.7322V68.7322L18.5889 69.1888ZM18.5889 73.9195L19.4786 74.3761L18.5889 73.9195ZM17.1412 75.4318L17.6269 76.306L17.6309 76.3037L17.1412 75.4318ZM12.6819 75.4318L12.1922 76.3038L12.2014 76.3088L12.6819 75.4318ZM11.2343 73.9195L12.124 73.463L11.2343 73.9195ZM11.2343 69.1888L12.124 69.6454L11.2343 69.1888ZM12.6819 67.6894L13.1625 68.5665L13.1716 68.5613L12.6819 67.6894ZM13.8711 69.2017L13.2993 68.3813L13.8711 69.2017ZM13.2248 70.0936L14.1603 70.447L14.1628 70.4402L13.2248 70.0936ZM13.2248 73.0147L12.2868 73.3614L13.2248 73.0147ZM15.9521 73.9066L15.3803 73.0862L15.3743 73.0904L15.3685 73.0946L15.9521 73.9066ZM16.5984 73.0147L15.6604 72.6681L16.5984 73.0147ZM16.5984 70.0936L15.6603 70.4402L15.6629 70.447L16.5984 70.0936ZM15.9521 69.2017L15.3685 70.0137L15.3743 70.018L15.3803 70.0221L15.9521 69.2017ZM14.9181 68.1595C15.6421 68.1595 16.2051 68.3071 16.6464 68.5584L17.6361 66.8205C16.8365 66.3652 15.9174 66.1595 14.9181 66.1595V68.1595ZM16.6607 68.5664C17.1096 68.8124 17.4519 69.1634 17.6992 69.6454L19.4786 68.7322C19.0538 67.9044 18.431 67.2559 17.6218 66.8125L16.6607 68.5664ZM17.6992 69.6454C17.9468 70.1278 18.093 70.7517 18.093 71.5542H20.093C20.093 70.5126 19.9032 69.5596 19.4786 68.7322L17.6992 69.6454ZM18.093 71.5542C18.093 72.3566 17.9468 72.9806 17.6992 73.463L19.4786 74.3761C19.9032 73.5487 20.093 72.5957 20.093 71.5542H18.093ZM17.6992 73.463C17.4509 73.9469 17.1057 74.3048 16.6515 74.5599L17.6309 76.3037C18.4348 75.8522 19.0548 75.2019 19.4786 74.3761L17.6992 73.463ZM16.6556 74.5577C16.2124 74.8039 15.646 74.9488 14.9181 74.9488V76.9488C15.9135 76.9488 16.8292 76.7491 17.6269 76.306L16.6556 74.5577ZM14.9181 74.9488C14.1906 74.9488 13.6173 74.804 13.1625 74.5548L12.2014 76.3088C13.0047 76.749 13.9221 76.9488 14.9181 76.9488V74.9488ZM13.1716 74.5599C12.7175 74.3048 12.3723 73.9469 12.124 73.463L10.3446 74.3761C10.7684 75.2019 11.3883 75.8522 12.1923 76.3037L13.1716 74.5599ZM12.124 73.463C11.8764 72.9806 11.7302 72.3566 11.7302 71.5542H9.7302C9.7302 72.5957 9.92003 73.5487 10.3446 74.3761L12.124 73.463ZM11.7302 71.5542C11.7302 70.7517 11.8764 70.1278 12.124 69.6454L10.3446 68.7322C9.92003 69.5596 9.7302 70.5126 9.7302 71.5542H11.7302ZM12.124 69.6454C12.3713 69.1634 12.7136 68.8124 13.1625 68.5664L12.2014 66.8125C11.3922 67.2559 10.7694 67.9044 10.3446 68.7322L12.124 69.6454ZM13.1716 68.5613C13.6245 68.307 14.1945 68.1595 14.9181 68.1595V66.1595C13.9182 66.1595 12.9974 66.3653 12.1923 66.8176L13.1716 68.5613ZM14.9181 67.9044C14.3403 67.9044 13.7817 68.0451 13.2993 68.3813L14.4429 70.0221C14.5292 69.962 14.6685 69.9044 14.9181 69.9044V67.9044ZM13.2993 68.3813C12.8136 68.7199 12.4884 69.2016 12.2868 69.7469L14.1628 70.4402C14.2542 70.1929 14.3599 70.08 14.4429 70.0221L13.2993 68.3813ZM12.2893 69.7402C12.0865 70.2771 12.0051 70.8935 12.0051 71.5542H14.0051C14.0051 71.0429 14.0702 70.6856 14.1603 70.447L12.2893 69.7402ZM12.0051 71.5542C12.0051 72.2094 12.0873 72.8216 12.2868 73.3614L14.1628 72.6681C14.0693 72.4151 14.0051 72.0536 14.0051 71.5542H12.0051ZM12.2868 73.3614C12.4884 73.9068 12.8136 74.3885 13.2993 74.727L14.4429 73.0862C14.3599 73.0284 14.2542 72.9155 14.1628 72.6681L12.2868 73.3614ZM13.2993 74.727C13.7817 75.0633 14.3403 75.2039 14.9181 75.2039V73.2039C14.6685 73.2039 14.5292 73.1463 14.4429 73.0862L13.2993 74.727ZM14.9181 75.2039C15.4946 75.2039 16.0557 75.0636 16.5357 74.7186L15.3685 73.0946C15.297 73.146 15.1687 73.2039 14.9181 73.2039V75.2039ZM16.5239 74.727C17.0096 74.3885 17.3348 73.9068 17.5364 73.3614L15.6604 72.6681C15.569 72.9155 15.4633 73.0284 15.3803 73.0862L16.5239 74.727ZM17.5364 73.3614C17.7359 72.8216 17.8181 72.2094 17.8181 71.5542H15.8181C15.8181 72.0536 15.7539 72.4151 15.6604 72.6681L17.5364 73.3614ZM17.8181 71.5542C17.8181 70.8935 17.7367 70.2771 17.5338 69.7402L15.6629 70.447C15.753 70.6856 15.8181 71.0429 15.8181 71.5542H17.8181ZM17.5364 69.7469C17.3348 69.2016 17.0096 68.7199 16.5239 68.3813L15.3803 70.0221C15.4633 70.08 15.569 70.1929 15.6604 70.4402L17.5364 69.7469ZM16.5357 68.3897C16.0557 68.0447 15.4946 67.9044 14.9181 67.9044V69.9044C15.1687 69.9044 15.297 69.9624 15.3685 70.0137L16.5357 68.3897ZM22.8453 74.1005H21.8453V75.1005H22.8453V74.1005ZM27.1237 74.1005H28.1237V73.1005H27.1237V74.1005ZM27.1237 75.8196V76.8196H28.1237V75.8196H27.1237ZM20.6221 75.8196H19.6221V76.8196H20.6221V75.8196ZM20.6221 67.2888V66.2888H19.6221V67.2888H20.6221ZM22.8453 67.2888H23.8453V66.2888H22.8453V67.2888ZM22.8453 75.1005H27.1237V73.1005H22.8453V75.1005ZM26.1237 74.1005V75.8196H28.1237V74.1005H26.1237ZM27.1237 74.8196H20.6221V76.8196H27.1237V74.8196ZM21.6221 75.8196V67.2888H19.6221V75.8196H21.6221ZM20.6221 68.2888H22.8453V66.2888H20.6221V68.2888ZM21.8453 67.2888V74.1005H23.8453V67.2888H21.8453ZM35.0801 68.4003L34.3564 69.0904L34.3606 69.0948L35.0801 68.4003ZM35.0801 74.708L34.3605 74.0135L34.3564 74.0179L35.0801 74.708ZM28.3976 75.8196H27.3976V76.8196H28.3976V75.8196ZM28.3976 67.2888V66.2888H27.3976V67.2888H28.3976ZM33.3739 73.493L32.5796 72.8855L32.5778 72.8879L33.3739 73.493ZM33.3739 69.6283L32.5721 70.2258L32.5786 70.2346L32.5854 70.2433L33.3739 69.6283ZM30.6208 68.9691V67.9691H29.6208V68.9691H30.6208ZM30.6208 74.1393H29.6208V75.1393H30.6208V74.1393ZM32.0168 68.2888C33.1662 68.2888 33.8913 68.6027 34.3564 69.0904L35.8038 67.7103C34.8557 66.7159 33.5385 66.2888 32.0168 66.2888V68.2888ZM34.3606 69.0948C34.8439 69.5956 35.1529 70.3658 35.1529 71.5542H37.1529C37.1529 70.0196 36.7467 68.6872 35.7996 67.7059L34.3606 69.0948ZM35.1529 71.5542C35.1529 72.7425 34.8439 73.5127 34.3606 74.0135L35.7996 75.4024C36.7467 74.4211 37.1529 73.0888 37.1529 71.5542H35.1529ZM34.3564 74.0179C33.8913 74.5057 33.1662 74.8196 32.0168 74.8196V76.8196C33.5385 76.8196 34.8557 76.3924 35.8038 75.3981L34.3564 74.0179ZM32.0168 74.8196H28.3976V76.8196H32.0168V74.8196ZM29.3976 75.8196V67.2888H27.3976V75.8196H29.3976ZM28.3976 68.2888H32.0168V66.2888H28.3976V68.2888ZM31.797 75.1393C32.7194 75.1393 33.5939 74.8563 34.1701 74.0981L32.5778 72.8879C32.4991 72.9914 32.3223 73.1393 31.797 73.1393V75.1393ZM34.1683 74.1004C34.6927 73.4146 34.878 72.5147 34.878 71.5542H32.878C32.878 72.2998 32.7273 72.6924 32.5796 72.8855L34.1683 74.1004ZM34.878 71.5542C34.878 70.5958 34.6936 69.6942 34.1624 69.0132L32.5854 70.2433C32.7264 70.424 32.878 70.8064 32.878 71.5542H34.878ZM34.1758 69.0308C33.6022 68.261 32.7263 67.9691 31.797 67.9691V69.9691C32.3154 69.9691 32.4908 70.1167 32.5721 70.2258L34.1758 69.0308ZM31.797 67.9691H30.6208V69.9691H31.797V67.9691ZM29.6208 68.9691V74.1393H31.6208V68.9691H29.6208ZM30.6208 75.1393H31.797V73.1393H30.6208V75.1393ZM37.6752 75.8196H36.6752V76.8196H37.6752V75.8196ZM37.6752 67.2888V66.2888H36.6752V67.2888H37.6752ZM44.3189 67.2888H45.3189V66.2888H44.3189V67.2888ZM44.3189 69.0078V70.0078H45.3189V69.0078H44.3189ZM39.8984 69.0078V68.0078H38.8984V69.0078H39.8984ZM39.8984 70.7399H38.8984V71.7399H39.8984V70.7399ZM43.4141 70.7399H44.4141V69.7399H43.4141V70.7399ZM43.4141 72.3555V73.3555H44.4141V72.3555H43.4141ZM39.8984 72.3555V71.3555H38.8984V72.3555H39.8984ZM39.8984 74.1005H38.8984V75.1005H39.8984V74.1005ZM44.4869 74.1005H45.4869V73.1005H44.4869V74.1005ZM44.4869 75.8196V76.8196H45.4869V75.8196H44.4869ZM38.6752 75.8196V67.2888H36.6752V75.8196H38.6752ZM37.6752 68.2888H44.3189V66.2888H37.6752V68.2888ZM43.3189 67.2888V69.0078H45.3189V67.2888H43.3189ZM44.3189 68.0078H39.8984V70.0078H44.3189V68.0078ZM38.8984 69.0078V70.7399H40.8984V69.0078H38.8984ZM39.8984 71.7399H43.4141V69.7399H39.8984V71.7399ZM42.4141 70.7399V72.3555H44.4141V70.7399H42.4141ZM43.4141 71.3555H39.8984V73.3555H43.4141V71.3555ZM38.8984 72.3555V74.1005H40.8984V72.3555H38.8984ZM39.8984 75.1005H44.4869V73.1005H39.8984V75.1005ZM43.4869 74.1005V75.8196H45.4869V74.1005H43.4869ZM44.4869 74.8196H37.6752V76.8196H44.4869V74.8196ZM53.52 67.2888H54.52V66.2888H53.52V67.2888ZM53.52 75.8196V76.8196H54.52V75.8196H53.52ZM51.0513 75.8196L50.1841 76.3175L50.4723 76.8196H51.0513V75.8196ZM48.4015 71.2052L47.5108 71.6596L47.522 71.6817L47.5343 71.7031L48.4015 71.2052ZM47.7553 69.9385L48.646 69.484L48.3677 68.9385H47.7553V69.9385ZM47.7423 69.9385V68.9385H46.709L46.7429 69.9713L47.7423 69.9385ZM47.794 71.5154H48.794V71.499L48.7935 71.4826L47.794 71.5154ZM47.794 75.8196V76.8196H48.794V75.8196H47.794ZM45.8294 75.8196H44.8294V76.8196H45.8294V75.8196ZM45.8294 67.2888V66.2888H44.8294V67.2888H45.8294ZM48.2981 67.2888L49.1653 66.7908L48.877 66.2888H48.2981V67.2888ZM50.9479 71.9032L51.8386 71.4487L51.8274 71.4266L51.8151 71.4052L50.9479 71.9032ZM51.5941 73.1699L50.7034 73.6243L50.9817 74.1699H51.5941V73.1699ZM51.6071 73.1699V74.1699H52.6404L52.6065 73.1371L51.6071 73.1699ZM51.5554 71.5929H50.5554V71.6093L50.5559 71.6257L51.5554 71.5929ZM51.5554 67.2888V66.2888H50.5554V67.2888H51.5554ZM52.52 67.2888V75.8196H54.52V67.2888H52.52ZM53.52 74.8196H51.0513V76.8196H53.52V74.8196ZM51.9185 75.3216L49.2687 70.7072L47.5343 71.7031L50.1841 76.3175L51.9185 75.3216ZM49.2923 70.7507L48.646 69.484L46.8645 70.393L47.5108 71.6596L49.2923 70.7507ZM47.7553 68.9385H47.7423V70.9385H47.7553V68.9385ZM46.7429 69.9713L46.7946 71.5482L48.7935 71.4826L48.7418 69.9057L46.7429 69.9713ZM46.794 71.5154V75.8196H48.794V71.5154H46.794ZM47.794 74.8196H45.8294V76.8196H47.794V74.8196ZM46.8294 75.8196V67.2888H44.8294V75.8196H46.8294ZM45.8294 68.2888H48.2981V66.2888H45.8294V68.2888ZM47.4309 67.7867L50.0807 72.4011L51.8151 71.4052L49.1653 66.7908L47.4309 67.7867ZM50.0571 72.3576L50.7034 73.6243L52.4849 72.7154L51.8386 71.4487L50.0571 72.3576ZM51.5941 74.1699H51.6071V72.1699H51.5941V74.1699ZM52.6065 73.1371L52.5548 71.5602L50.5559 71.6257L50.6076 73.2026L52.6065 73.1371ZM52.5554 71.5929V67.2888H50.5554V71.5929H52.5554ZM51.5554 68.2888H53.52V66.2888H51.5554V68.2888ZM64.8084 67.6248L64.3934 68.5346L64.3934 68.5346L64.8084 67.6248ZM65.9329 68.5942L65.0801 69.1164V69.1164L65.9329 68.5942ZM65.9329 71.6705L65.0801 71.1483V71.1483L65.9329 71.6705ZM64.8084 72.6399L64.3934 71.7301L64.8084 72.6399ZM61.3315 72.976V71.976H60.3315V72.976H61.3315ZM61.3315 75.8196V76.8196H62.3315V75.8196H61.3315ZM59.1083 75.8196H58.1083V76.8196H59.1083V75.8196ZM59.1083 67.2888V66.2888H58.1083V67.2888H59.1083ZM63.7227 71.0242L64.3544 71.7995L64.3574 71.7969L63.7227 71.0242ZM63.7227 69.2534L63.0742 70.0147L63.0893 70.0275L63.1049 70.0397L63.7227 69.2534ZM61.3315 68.9561V67.9561H60.3315V68.9561H61.3315ZM61.3315 71.3086H60.3315V72.3086H61.3315V71.3086ZM63.0247 68.2888C63.6198 68.2888 64.0648 68.3847 64.3934 68.5346L65.2234 66.715C64.5697 66.4168 63.8256 66.2888 63.0247 66.2888V68.2888ZM64.3934 68.5346C64.7204 68.6838 64.9351 68.8795 65.0801 69.1164L66.7858 68.0721C66.4138 67.4645 65.8788 67.0139 65.2234 66.715L64.3934 68.5346ZM65.0801 69.1164C65.2233 69.3503 65.3207 69.6732 65.3207 70.1324H67.3207C67.3207 69.3852 67.1596 68.6826 66.7858 68.0721L65.0801 69.1164ZM65.3207 70.1324C65.3207 70.5916 65.2233 70.9144 65.0801 71.1483L66.7858 72.1927C67.1596 71.5821 67.3207 70.8795 67.3207 70.1324H65.3207ZM65.0801 71.1483C64.9351 71.3852 64.7204 71.5809 64.3934 71.7301L65.2234 73.5497C65.8788 73.2508 66.4138 72.8002 66.7858 72.1927L65.0801 71.1483ZM64.3934 71.7301C64.0648 71.88 63.6198 71.976 63.0247 71.976V73.976C63.8256 73.976 64.5697 73.8479 65.2234 73.5497L64.3934 71.7301ZM63.0247 71.976H61.3315V73.976H63.0247V71.976ZM60.3315 72.976V75.8196H62.3315V72.976H60.3315ZM61.3315 74.8196H59.1083V76.8196H61.3315V74.8196ZM60.1083 75.8196V67.2888H58.1083V75.8196H60.1083ZM59.1083 68.2888H63.0247V66.2888H59.1083V68.2888ZM62.6757 72.3086C63.2511 72.3086 63.8683 72.1955 64.3544 71.7995L63.091 70.249C63.1031 70.2391 63.0909 70.2544 63.0243 70.2725C62.9556 70.2911 62.8438 70.3086 62.6757 70.3086V72.3086ZM64.3574 71.7969C64.89 71.3595 65.0846 70.7405 65.0846 70.1324H63.0846C63.0846 70.2311 63.0694 70.2719 63.0675 70.2766C63.0667 70.2785 63.0683 70.2743 63.0735 70.2672C63.0788 70.2599 63.0844 70.2544 63.0879 70.2515L64.3574 71.7969ZM65.0846 70.1324C65.0846 69.5265 64.8905 68.8992 64.3405 68.4671L63.1049 70.0397C63.0978 70.0342 63.089 70.0257 63.081 70.015C63.0731 70.0045 63.0698 69.997 63.0694 69.9961C63.0693 69.9956 63.0846 70.0331 63.0846 70.1324H65.0846ZM64.3712 68.4922C63.8838 68.0771 63.2595 67.9561 62.6757 67.9561V69.9561C63.0226 69.9561 63.0962 70.0334 63.0742 70.0147L64.3712 68.4922ZM62.6757 67.9561H61.3315V69.9561H62.6757V67.9561ZM60.3315 68.9561V71.3086H62.3315V68.9561H60.3315ZM61.3315 72.3086H62.6757V70.3086H61.3315V72.3086ZM74.179 68.0126L73.5263 68.7702L73.5325 68.7755L73.5388 68.7808L74.179 68.0126ZM71.8266 72.5882V71.5882H71.5646L71.3363 71.7166L71.8266 72.5882ZM71.6198 72.7045V73.7045H71.8817L72.11 73.5761L71.6198 72.7045ZM69.9265 72.7045V71.7045H68.9265V72.7045H69.9265ZM69.9265 75.8196V76.8196H70.9265V75.8196H69.9265ZM67.7421 75.8196H66.7421V76.8196H67.7421V75.8196ZM67.7421 67.2888V66.2888H66.7421V67.2888H67.7421ZM72.4728 70.8691L71.8481 70.0882L71.8481 70.0882L72.4728 70.8691ZM72.4728 69.2276L73.0975 68.4467V68.4467L72.4728 69.2276ZM69.9265 68.9691V67.9691H68.9265V68.9691H69.9265ZM69.9265 71.1276H68.9265V72.1276H69.9265V71.1276ZM72.8089 71.5929L73.6492 71.0508L73.2584 70.4451L72.5602 70.6244L72.8089 71.5929ZM75.5362 75.8196V76.8196H77.3715L76.3764 75.2774L75.5362 75.8196ZM73.0803 75.8196L72.2171 76.3244L72.5067 76.8196H73.0803V75.8196ZM70.8959 72.0841L70.6472 71.1155L69.3638 71.4451L70.0327 72.5889L70.8959 72.0841ZM71.8136 68.2888C72.6808 68.2888 73.2058 68.4941 73.5263 68.7702L74.8317 67.255C74.032 66.566 72.9801 66.2888 71.8136 66.2888V68.2888ZM73.5388 68.7808C73.8617 69.0499 74.0321 69.3927 74.0321 69.9126H76.0321C76.0321 68.8471 75.6337 67.9231 74.8192 67.2444L73.5388 68.7808ZM74.0321 69.9126C74.0321 70.5503 73.8392 70.9005 73.56 71.1281L74.8239 72.6782C75.6648 71.9925 76.0321 71.0156 76.0321 69.9126H74.0321ZM73.56 71.1281C73.2387 71.3901 72.7053 71.5882 71.8266 71.5882V73.5882C72.9814 73.5882 74.025 73.3296 74.8239 72.6782L73.56 71.1281ZM71.3363 71.7166L71.1295 71.833L72.11 73.5761L72.3168 73.4598L71.3363 71.7166ZM71.6198 71.7045H69.9265V73.7045H71.6198V71.7045ZM68.9265 72.7045V75.8196H70.9265V72.7045H68.9265ZM69.9265 74.8196H67.7421V76.8196H69.9265V74.8196ZM68.7421 75.8196V67.2888H66.7421V75.8196H68.7421ZM67.7421 68.2888H71.8136V66.2888H67.7421V68.2888ZM71.5034 72.1276C72.0411 72.1276 72.6294 72.0245 73.0975 71.65L71.8481 70.0882C71.869 70.0715 71.8668 70.082 71.8112 70.0968C71.7538 70.1121 71.6555 70.1276 71.5034 70.1276V72.1276ZM73.0975 71.65C73.6306 71.2235 73.796 70.6042 73.796 70.0419H71.796C71.796 70.1404 71.7815 70.1748 71.7837 70.1692C71.7853 70.1653 71.7908 70.1526 71.8031 70.1356C71.8156 70.1182 71.8312 70.1018 71.8481 70.0882L73.0975 71.65ZM73.796 70.0419C73.796 69.479 73.6253 68.869 73.0975 68.4467L71.8481 70.0084C71.8328 69.9962 71.8181 69.9809 71.8058 69.9641C71.7937 69.9474 71.7878 69.9345 71.7857 69.9293C71.7823 69.9207 71.796 69.9504 71.796 70.0419H73.796ZM73.0975 68.4467C72.6294 68.0722 72.0411 67.9691 71.5034 67.9691V69.9691C71.6555 69.9691 71.7538 69.9846 71.8112 69.9999C71.8668 70.0147 71.869 70.0252 71.8481 70.0084L73.0975 68.4467ZM71.5034 67.9691H69.9265V69.9691H71.5034V67.9691ZM68.9265 68.9691V71.1276H70.9265V68.9691H68.9265ZM69.9265 72.1276H71.5034V70.1276H69.9265V72.1276ZM71.9686 72.1351L74.6959 76.3618L76.3764 75.2774L73.6492 71.0508L71.9686 72.1351ZM75.5362 74.8196H73.0803V76.8196H75.5362V74.8196ZM73.9436 75.3148L71.7592 71.5793L70.0327 72.5889L72.2171 76.3244L73.9436 75.3148ZM71.1446 73.0527L73.0576 72.5615L72.5602 70.6244L70.6472 71.1155L71.1446 73.0527ZM82.6144 67.6894L82.1196 68.5584L82.1267 68.5625L82.1339 68.5664L82.6144 67.6894ZM84.0621 69.1888L84.9518 68.7322V68.7322L84.0621 69.1888ZM84.0621 73.9195L84.9518 74.3761L84.0621 73.9195ZM82.6144 75.4318L83.1001 76.306L83.1041 76.3037L82.6144 75.4318ZM78.1551 75.4318L77.6654 76.3038L77.6746 76.3088L78.1551 75.4318ZM76.7075 73.9195L77.5971 73.463L76.7075 73.9195ZM76.7075 69.1888L77.5971 69.6454L76.7075 69.1888ZM78.1551 67.6894L78.6357 68.5665L78.6448 68.5613L78.1551 67.6894ZM79.3443 69.2017L78.7725 68.3813L79.3443 69.2017ZM78.698 70.0936L79.6335 70.447L79.636 70.4402L78.698 70.0936ZM78.698 73.0147L77.76 73.3614L78.698 73.0147ZM81.4253 73.9066L80.8535 73.0862L80.8475 73.0904L80.8416 73.0946L81.4253 73.9066ZM82.0715 73.0147L81.1335 72.6681L82.0715 73.0147ZM82.0715 70.0936L81.1335 70.4402L81.1361 70.447L82.0715 70.0936ZM81.4253 69.2017L80.8416 70.0137L80.8475 70.018L80.8535 70.0221L81.4253 69.2017ZM80.3912 68.1595C81.1152 68.1595 81.6783 68.3071 82.1196 68.5584L83.1092 66.8205C82.3097 66.3652 81.3906 66.1595 80.3912 66.1595V68.1595ZM82.1339 68.5664C82.5827 68.8124 82.925 69.1634 83.1724 69.6454L84.9518 68.7322C84.5269 67.9044 83.9042 67.2559 83.0949 66.8125L82.1339 68.5664ZM83.1724 69.6454C83.4199 70.1278 83.5662 70.7517 83.5662 71.5542H85.5662C85.5662 70.5126 85.3763 69.5596 84.9518 68.7322L83.1724 69.6454ZM83.5662 71.5542C83.5662 72.3566 83.4199 72.9806 83.1724 73.463L84.9518 74.3761C85.3763 73.5487 85.5662 72.5957 85.5662 71.5542H83.5662ZM83.1724 73.463C82.924 73.9469 82.5789 74.3048 82.1247 74.5599L83.1041 76.3037C83.908 75.8522 84.528 75.2019 84.9518 74.3761L83.1724 73.463ZM82.1288 74.5577C81.6856 74.8039 81.1191 74.9488 80.3912 74.9488V76.9488C81.3867 76.9488 82.3024 76.7491 83.1 76.306L82.1288 74.5577ZM80.3912 74.9488C79.6638 74.9488 79.0904 74.804 78.6356 74.5548L77.6746 76.3088C78.4779 76.749 79.3952 76.9488 80.3912 76.9488V74.9488ZM78.6448 74.5599C78.1906 74.3048 77.8455 73.9469 77.5971 73.463L75.8178 74.3761C76.2415 75.2019 76.8615 75.8522 77.6654 76.3037L78.6448 74.5599ZM77.5971 73.463C77.3496 72.9806 77.2034 72.3566 77.2034 71.5542H75.2034C75.2034 72.5957 75.3932 73.5487 75.8178 74.3761L77.5971 73.463ZM77.2034 71.5542C77.2034 70.7517 77.3496 70.1278 77.5971 69.6454L75.8178 68.7322C75.3932 69.5596 75.2034 70.5126 75.2034 71.5542H77.2034ZM77.5971 69.6454C77.8445 69.1634 78.1868 68.8124 78.6356 68.5664L77.6746 66.8125C76.8654 67.2559 76.2426 67.9044 75.8178 68.7322L77.5971 69.6454ZM78.6448 68.5613C79.0977 68.307 79.6677 68.1595 80.3912 68.1595V66.1595C79.3913 66.1595 78.4706 66.3653 77.6654 66.8176L78.6448 68.5613ZM80.3912 67.9044C79.8135 67.9044 79.2549 68.0451 78.7725 68.3813L79.916 70.0221C80.0023 69.962 80.1417 69.9044 80.3912 69.9044V67.9044ZM78.7725 68.3813C78.2868 68.7199 77.9615 69.2016 77.76 69.7469L79.636 70.4402C79.7274 70.1929 79.833 70.08 79.916 70.0221L78.7725 68.3813ZM77.7625 69.7402C77.5597 70.2771 77.4782 70.8935 77.4782 71.5542H79.4782C79.4782 71.0429 79.5433 70.6856 79.6335 70.447L77.7625 69.7402ZM77.4782 71.5542C77.4782 72.2094 77.5605 72.8216 77.76 73.3614L79.636 72.6681C79.5425 72.4151 79.4782 72.0536 79.4782 71.5542H77.4782ZM77.76 73.3614C77.9615 73.9068 78.2868 74.3885 78.7725 74.727L79.916 73.0862C79.833 73.0284 79.7274 72.9155 79.636 72.6681L77.76 73.3614ZM78.7725 74.727C79.2549 75.0633 79.8135 75.2039 80.3912 75.2039V73.2039C80.1417 73.2039 80.0023 73.1463 79.916 73.0862L78.7725 74.727ZM80.3912 75.2039C80.9678 75.2039 81.5289 75.0636 82.0089 74.7186L80.8416 73.0946C80.7702 73.146 80.6419 73.2039 80.3912 73.2039V75.2039ZM81.997 74.727C82.4828 74.3885 82.808 73.9068 83.0095 73.3614L81.1335 72.6681C81.0421 72.9155 80.9365 73.0284 80.8535 73.0862L81.997 74.727ZM83.0095 73.3614C83.209 72.8216 83.2913 72.2094 83.2913 71.5542H81.2913C81.2913 72.0536 81.227 72.4151 81.1335 72.6681L83.0095 73.3614ZM83.2913 71.5542C83.2913 70.8935 83.2099 70.2771 83.007 69.7402L81.1361 70.447C81.2262 70.6856 81.2913 71.0429 81.2913 71.5542H83.2913ZM83.0095 69.7469C82.808 69.2016 82.4828 68.7199 81.997 68.3813L80.8535 70.0221C80.9365 70.08 81.0421 70.1929 81.1335 70.4402L83.0095 69.7469ZM82.0089 68.3897C81.5289 68.0447 80.9678 67.9044 80.3912 67.9044V69.9044C80.6419 69.9044 80.7702 69.9624 80.8416 70.0137L82.0089 68.3897ZM91.7954 67.6248L91.3804 68.5346V68.5346L91.7954 67.6248ZM92.92 68.5942L92.0671 69.1164V69.1164L92.92 68.5942ZM92.92 71.6705L92.0671 71.1483V71.1483L92.92 71.6705ZM91.7954 72.6399L91.3804 71.7301L91.7954 72.6399ZM88.3185 72.976V71.976H87.3185V72.976H88.3185ZM88.3185 75.8196V76.8196H89.3185V75.8196H88.3185ZM86.0953 75.8196H85.0953V76.8196H86.0953V75.8196ZM86.0953 67.2888V66.2888H85.0953V67.2888H86.0953ZM90.7097 71.0242L91.3414 71.7995L91.3444 71.7969L90.7097 71.0242ZM90.7097 69.2534L90.0612 70.0147L90.0763 70.0275L90.0919 70.0397L90.7097 69.2534ZM88.3185 68.9561V67.9561H87.3185V68.9561H88.3185ZM88.3185 71.3086H87.3185V72.3086H88.3185V71.3086ZM90.0117 68.2888C90.6068 68.2888 91.0518 68.3847 91.3804 68.5346L92.2104 66.715C91.5567 66.4168 90.8126 66.2888 90.0117 66.2888V68.2888ZM91.3804 68.5346C91.7074 68.6838 91.9221 68.8795 92.0671 69.1164L93.7728 68.0721C93.4008 67.4645 92.8658 67.0139 92.2104 66.715L91.3804 68.5346ZM92.0671 69.1164C92.2103 69.3503 92.3077 69.6732 92.3077 70.1324H94.3077C94.3077 69.3852 94.1466 68.6826 93.7728 68.0721L92.0671 69.1164ZM92.3077 70.1324C92.3077 70.5916 92.2103 70.9144 92.0671 71.1483L93.7728 72.1927C94.1466 71.5821 94.3077 70.8795 94.3077 70.1324H92.3077ZM92.0671 71.1483C91.9221 71.3852 91.7074 71.5809 91.3804 71.7301L92.2104 73.5497C92.8658 73.2508 93.4008 72.8002 93.7728 72.1927L92.0671 71.1483ZM91.3804 71.7301C91.0518 71.88 90.6068 71.976 90.0117 71.976V73.976C90.8126 73.976 91.5567 73.8479 92.2104 73.5497L91.3804 71.7301ZM90.0117 71.976H88.3185V73.976H90.0117V71.976ZM87.3185 72.976V75.8196H89.3185V72.976H87.3185ZM88.3185 74.8196H86.0953V76.8196H88.3185V74.8196ZM87.0953 75.8196V67.2888H85.0953V75.8196H87.0953ZM86.0953 68.2888H90.0117V66.2888H86.0953V68.2888ZM89.6627 72.3086C90.2382 72.3086 90.8553 72.1955 91.3414 71.7995L90.078 70.249C90.0901 70.2391 90.0779 70.2544 90.0114 70.2725C89.9426 70.2911 89.8308 70.3086 89.6627 70.3086V72.3086ZM91.3444 71.7969C91.877 71.3595 92.0716 70.7405 92.0716 70.1324H90.0716C90.0716 70.2311 90.0564 70.2719 90.0545 70.2766C90.0537 70.2785 90.0553 70.2743 90.0605 70.2672C90.0658 70.2599 90.0714 70.2544 90.075 70.2515L91.3444 71.7969ZM92.0716 70.1324C92.0716 69.5265 91.8775 68.8992 91.3275 68.4671L90.0919 70.0397C90.0848 70.0342 90.076 70.0257 90.068 70.015C90.0601 70.0045 90.0568 69.997 90.0564 69.9961C90.0563 69.9956 90.0716 70.0331 90.0716 70.1324H92.0716ZM91.3582 68.4922C90.8708 68.0771 90.2465 67.9561 89.6627 67.9561V69.9561C90.0096 69.9561 90.0832 70.0334 90.0612 70.0147L91.3582 68.4922ZM89.6627 67.9561H88.3185V69.9561H89.6627V67.9561ZM87.3185 68.9561V71.3086H89.3185V68.9561H87.3185ZM88.3185 72.3086H89.6627V70.3086H88.3185V72.3086ZM94.7291 75.8196H93.7291V76.8196H94.7291V75.8196ZM94.7291 67.2888V66.2888H93.7291V67.2888H94.7291ZM101.373 67.2888H102.373V66.2888H101.373V67.2888ZM101.373 69.0078V70.0078H102.373V69.0078H101.373ZM96.9523 69.0078V68.0078H95.9523V69.0078H96.9523ZM96.9523 70.7399H95.9523V71.7399H96.9523V70.7399ZM100.468 70.7399H101.468V69.7399H100.468V70.7399ZM100.468 72.3555V73.3555H101.468V72.3555H100.468ZM96.9523 72.3555V71.3555H95.9523V72.3555H96.9523ZM96.9523 74.1005H95.9523V75.1005H96.9523V74.1005ZM101.541 74.1005H102.541V73.1005H101.541V74.1005ZM101.541 75.8196V76.8196H102.541V75.8196H101.541ZM95.7291 75.8196V67.2888H93.7291V75.8196H95.7291ZM94.7291 68.2888H101.373V66.2888H94.7291V68.2888ZM100.373 67.2888V69.0078H102.373V67.2888H100.373ZM101.373 68.0078H96.9523V70.0078H101.373V68.0078ZM95.9523 69.0078V70.7399H97.9523V69.0078H95.9523ZM96.9523 71.7399H100.468V69.7399H96.9523V71.7399ZM99.468 70.7399V72.3555H101.468V70.7399H99.468ZM100.468 71.3555H96.9523V73.3555H100.468V71.3555ZM95.9523 72.3555V74.1005H97.9523V72.3555H95.9523ZM96.9523 75.1005H101.541V73.1005H96.9523V75.1005ZM100.541 74.1005V75.8196H102.541V74.1005H100.541ZM101.541 74.8196H94.7291V76.8196H101.541V74.8196ZM109.32 68.0126L108.667 68.7702L108.674 68.7755L108.68 68.7808L109.32 68.0126ZM106.968 72.5882V71.5882H106.706L106.477 71.7166L106.968 72.5882ZM106.761 72.7045V73.7045H107.023L107.251 73.5761L106.761 72.7045ZM105.068 72.7045V71.7045H104.068V72.7045H105.068ZM105.068 75.8196V76.8196H106.068V75.8196H105.068ZM102.883 75.8196H101.883V76.8196H102.883V75.8196ZM102.883 67.2888V66.2888H101.883V67.2888H102.883ZM107.614 70.8691L106.989 70.0882L106.989 70.0882L107.614 70.8691ZM107.614 69.2276L108.239 68.4467V68.4467L107.614 69.2276ZM105.068 68.9691V67.9691H104.068V68.9691H105.068ZM105.068 71.1276H104.068V72.1276H105.068V71.1276ZM107.95 71.5929L108.79 71.0508L108.4 70.4451L107.701 70.6244L107.95 71.5929ZM110.677 75.8196V76.8196H112.513L111.518 75.2774L110.677 75.8196ZM108.222 75.8196L107.358 76.3244L107.648 76.8196H108.222V75.8196ZM106.037 72.0841L105.788 71.1155L104.505 71.4451L105.174 72.5889L106.037 72.0841ZM106.955 68.2888C107.822 68.2888 108.347 68.4941 108.667 68.7702L109.973 67.255C109.173 66.566 108.121 66.2888 106.955 66.2888V68.2888ZM108.68 68.7808C109.003 69.0499 109.173 69.3927 109.173 69.9126H111.173C111.173 68.8471 110.775 67.9231 109.96 67.2444L108.68 68.7808ZM109.173 69.9126C109.173 70.5503 108.98 70.9005 108.701 71.1281L109.965 72.6782C110.806 71.9925 111.173 71.0156 111.173 69.9126H109.173ZM108.701 71.1281C108.38 71.3901 107.847 71.5882 106.968 71.5882V73.5882C108.123 73.5882 109.166 73.3296 109.965 72.6782L108.701 71.1281ZM106.477 71.7166L106.271 71.833L107.251 73.5761L107.458 73.4598L106.477 71.7166ZM106.761 71.7045H105.068V73.7045H106.761V71.7045ZM104.068 72.7045V75.8196H106.068V72.7045H104.068ZM105.068 74.8196H102.883V76.8196H105.068V74.8196ZM103.883 75.8196V67.2888H101.883V75.8196H103.883ZM102.883 68.2888H106.955V66.2888H102.883V68.2888ZM106.645 72.1276C107.182 72.1276 107.771 72.0245 108.239 71.65L106.989 70.0882C107.01 70.0715 107.008 70.082 106.952 70.0968C106.895 70.1121 106.797 70.1276 106.645 70.1276V72.1276ZM108.239 71.65C108.772 71.2235 108.937 70.6042 108.937 70.0419H106.937C106.937 70.1404 106.923 70.1748 106.925 70.1692C106.926 70.1653 106.932 70.1526 106.944 70.1356C106.957 70.1182 106.972 70.1018 106.989 70.0882L108.239 71.65ZM108.937 70.0419C108.937 69.479 108.767 68.869 108.239 68.4467L106.989 70.0084C106.974 69.9962 106.959 69.9809 106.947 69.9641C106.935 69.9474 106.929 69.9345 106.927 69.9293C106.923 69.9207 106.937 69.9504 106.937 70.0419H108.937ZM108.239 68.4467C107.771 68.0722 107.182 67.9691 106.645 67.9691V69.9691C106.797 69.9691 106.895 69.9846 106.952 69.9999C107.008 70.0147 107.01 70.0252 106.989 70.0084L108.239 68.4467ZM106.645 67.9691H105.068V69.9691H106.645V67.9691ZM104.068 68.9691V71.1276H106.068V68.9691H104.068ZM105.068 72.1276H106.645V70.1276H105.068V72.1276ZM107.11 72.1351L109.837 76.3618L111.518 75.2774L108.79 71.0508L107.11 72.1351ZM110.677 74.8196H108.222V76.8196H110.677V74.8196ZM109.085 75.3148L106.9 71.5793L105.174 72.5889L107.358 76.3244L109.085 75.3148ZM106.286 73.0527L108.199 72.5615L107.701 70.6244L105.788 71.1155L106.286 73.0527ZM118.867 67.2888H119.867V66.2888H118.867V67.2888ZM118.867 69.0078V70.0078H119.867V69.0078H118.867ZM116.088 69.0078V68.0078H115.088V69.0078H116.088ZM116.088 75.8196V76.8196H117.088V75.8196H116.088ZM113.865 75.8196H112.865V76.8196H113.865V75.8196ZM113.865 69.0078H114.865V68.0078H113.865V69.0078ZM111.073 69.0078H110.073V70.0078H111.073V69.0078ZM111.073 67.2888V66.2888H110.073V67.2888H111.073ZM117.867 67.2888V69.0078H119.867V67.2888H117.867ZM118.867 68.0078H116.088V70.0078H118.867V68.0078ZM115.088 69.0078V75.8196H117.088V69.0078H115.088ZM116.088 74.8196H113.865V76.8196H116.088V74.8196ZM114.865 75.8196V69.0078H112.865V75.8196H114.865ZM113.865 68.0078H111.073V70.0078H113.865V68.0078ZM112.073 69.0078V67.2888H110.073V69.0078H112.073ZM111.073 68.2888H118.867V66.2888H111.073V68.2888ZM127.33 67.2888L128.204 67.7748L129.031 66.2888H127.33V67.2888ZM124.319 72.7045L123.445 72.2185L123.319 72.4452V72.7045H124.319ZM124.319 75.8196V76.8196H125.319V75.8196H124.319ZM122.096 75.8196H121.096V76.8196H122.096V75.8196ZM122.096 72.7045H123.096V72.4452L122.969 72.2185L122.096 72.7045ZM119.084 67.2888V66.2888H117.384L118.21 67.7748L119.084 67.2888ZM121.385 67.2888L122.274 66.8317L121.995 66.2888H121.385V67.2888ZM122.587 69.6283L123.5 69.2214L123.489 69.196L123.476 69.1713L122.587 69.6283ZM123.22 71.0501L122.307 71.457L123.211 73.4869L124.13 71.4639L123.22 71.0501ZM123.866 69.6283L122.977 69.1713L122.966 69.1926L122.956 69.2145L123.866 69.6283ZM125.068 67.2888V66.2888H124.458L124.179 66.8317L125.068 67.2888ZM126.456 66.8028L123.445 72.2185L125.193 73.1905L128.204 67.7748L126.456 66.8028ZM123.319 72.7045V75.8196H125.319V72.7045H123.319ZM124.319 74.8196H122.096V76.8196H124.319V74.8196ZM123.096 75.8196V72.7045H121.096V75.8196H123.096ZM122.969 72.2185L119.958 66.8028L118.21 67.7748L121.222 73.1905L122.969 72.2185ZM119.084 68.2888H121.385V66.2888H119.084V68.2888ZM120.495 67.7458L121.697 70.0853L123.476 69.1713L122.274 66.8317L120.495 67.7458ZM121.673 70.0352L122.307 71.457L124.133 70.6432L123.5 69.2214L121.673 70.0352ZM124.13 71.4639L124.777 70.0421L122.956 69.2145L122.31 70.6363L124.13 71.4639ZM124.756 70.0853L125.958 67.7458L124.179 66.8317L122.977 69.1713L124.756 70.0853ZM125.068 68.2888H127.33V66.2888H125.068V68.2888ZM137.155 67.5343L136.772 68.4582L136.78 68.4615L136.788 68.4646L137.155 67.5343ZM138.744 68.6072L139.545 69.206L140.049 68.5318L139.471 67.9201L138.744 68.6072ZM137.672 70.0419L136.949 70.7327L137.765 71.587L138.472 70.6407L137.672 70.0419ZM136.469 69.1759L136.045 70.0811L136.056 70.0863L136.067 70.0912L136.469 69.1759ZM134.246 68.982L133.918 68.0375V68.0375L134.246 68.982ZM133.82 69.2664L134.633 69.8476V69.8476L133.82 69.2664ZM133.936 70.1453L133.316 70.9302L133.339 70.948L133.363 70.9645L133.936 70.1453ZM134.763 70.4555L134.542 71.4306L134.544 71.4311L134.763 70.4555ZM136.198 70.7786L136.424 69.8046L136.418 69.8031L136.198 70.7786ZM138.201 74.6951L139.002 75.2951L139.007 75.2871L138.201 74.6951ZM136.922 75.6386L137.278 76.5732L137.291 76.5681L136.922 75.6386ZM133.432 75.7679L133.189 76.738L133.197 76.7399L133.205 76.7417L133.432 75.7679ZM132.036 75.225L131.546 76.0966L132.036 75.225ZM130.989 74.4236L130.178 73.8384L129.695 74.5084L130.261 75.1096L130.989 74.4236ZM132.062 72.9372L132.819 72.2843L131.992 71.3249L131.251 72.352L132.062 72.9372ZM132.85 73.6093L132.312 74.452L132.325 74.4607L132.339 74.4689L132.85 73.6093ZM133.884 74.0617L133.595 75.0189L133.601 75.0207L133.884 74.0617ZM135.784 74.1393L135.504 73.1792L135.493 73.1826L135.784 74.1393ZM136.185 72.9889L135.478 73.696L135.49 73.7082L135.503 73.72L136.185 72.9889ZM135.448 72.6658L135.68 71.693L135.672 71.6911L135.664 71.6894L135.448 72.6658ZM133.871 72.3168L133.645 73.2909L133.655 73.2931L133.871 72.3168ZM132.579 71.8773L132.123 72.7676L132.136 72.7738L132.148 72.7798L132.579 71.8773ZM131.7 71.1276L130.871 71.6875L130.879 71.698L131.7 71.1276ZM131.816 68.5167L132.632 69.0947L132.638 69.0868L131.816 68.5167ZM133.083 67.5214L132.682 66.6053V66.6053L133.083 67.5214ZM135.061 68.1595C135.749 68.1595 136.313 68.2681 136.772 68.4582L137.537 66.6105C136.79 66.3008 135.957 66.1595 135.061 66.1595V68.1595ZM136.788 68.4646C137.264 68.6526 137.671 68.9276 138.018 69.2942L139.471 67.9201C138.921 67.3388 138.268 66.8986 137.521 66.6041L136.788 68.4646ZM137.943 68.0083L136.871 69.443L138.472 70.6407L139.545 69.206L137.943 68.0083ZM138.395 69.351C137.946 68.8813 137.439 68.51 136.872 68.2606L136.067 70.0912C136.361 70.2209 136.656 70.427 136.949 70.7327L138.395 69.351ZM136.894 68.2706C136.319 68.0006 135.688 67.8786 135.022 67.8786V69.8786C135.442 69.8786 135.775 69.9548 136.045 70.0811L136.894 68.2706ZM135.022 67.8786C134.643 67.8786 134.261 67.918 133.918 68.0375L134.575 69.9265C134.627 69.9082 134.763 69.8786 135.022 69.8786V67.8786ZM133.918 68.0375C133.603 68.1471 133.253 68.3393 133.006 68.6851L134.633 69.8476C134.596 69.8997 134.56 69.9271 134.546 69.9368C134.533 69.9456 134.538 69.9392 134.575 69.9265L133.918 68.0375ZM133.006 68.6851C132.793 68.9835 132.69 69.3267 132.69 69.68H134.69C134.69 69.6961 134.688 69.724 134.677 69.7585C134.666 69.7934 134.65 69.8239 134.633 69.8476L133.006 68.6851ZM132.69 69.68C132.69 70.2161 132.954 70.6439 133.316 70.9302L134.556 69.3604C134.563 69.3661 134.601 69.3984 134.636 69.4653C134.674 69.5362 134.69 69.6131 134.69 69.68H132.69ZM133.363 70.9645C133.696 71.1981 134.125 71.3359 134.542 71.4306L134.985 69.4804C134.826 69.4443 134.708 69.4088 134.623 69.377C134.535 69.344 134.506 69.3232 134.51 69.3261L133.363 70.9645ZM134.544 71.4311L135.978 71.7542L136.418 69.8031L134.983 69.4799L134.544 71.4311ZM135.972 71.7527C136.744 71.9322 137.17 72.1653 137.381 72.3673L138.763 70.922C138.182 70.3657 137.358 70.0214 136.424 69.8046L135.972 71.7527ZM137.381 72.3673C137.551 72.5295 137.667 72.757 137.667 73.1569H139.667C139.667 72.2988 139.387 71.5181 138.763 70.922L137.381 72.3673ZM137.667 73.1569C137.667 73.5806 137.561 73.8775 137.396 74.103L139.007 75.2871C139.462 74.6681 139.667 73.9396 139.667 73.1569H137.667ZM137.401 74.0951C137.216 74.3428 136.947 74.5527 136.553 74.7091L137.291 76.5681C137.982 76.2937 138.567 75.8746 139.001 75.2951L137.401 74.0951ZM136.566 74.7041C136.157 74.8599 135.661 74.9488 135.061 74.9488V76.9488C135.856 76.9488 136.601 76.831 137.278 76.5731L136.566 74.7041ZM135.061 74.9488C134.563 74.9488 134.097 74.8961 133.659 74.794L133.205 76.7417C133.801 76.8809 134.421 76.9488 135.061 76.9488V74.9488ZM133.675 74.7977C133.234 74.6875 132.853 74.5373 132.526 74.3534L131.546 76.0966C132.046 76.378 132.596 76.5897 133.189 76.738L133.675 74.7977ZM132.526 74.3534C132.188 74.1633 131.923 73.956 131.717 73.7376L130.261 75.1096C130.624 75.4945 131.057 75.8214 131.546 76.0966L132.526 74.3534ZM131.8 75.0089L132.873 73.5224L131.251 72.352L130.178 73.8384L131.8 75.0089ZM131.304 73.5901C131.59 73.9215 131.929 74.2075 132.312 74.452L133.389 72.7666C133.151 72.6147 132.964 72.4526 132.819 72.2843L131.304 73.5901ZM132.339 74.4689C132.731 74.7016 133.15 74.8845 133.595 75.0189L134.174 73.1045C133.877 73.0149 133.608 72.8962 133.361 72.7498L132.339 74.4689ZM133.601 75.0207C134.07 75.1594 134.549 75.2297 135.035 75.2297V73.2297C134.745 73.2297 134.457 73.1881 134.168 73.1027L133.601 75.0207ZM135.035 75.2297C135.394 75.2297 135.751 75.1948 136.076 75.0959L135.493 73.1826C135.422 73.2044 135.278 73.2297 135.035 73.2297V75.2297ZM136.064 75.0993C136.393 75.0034 136.757 74.8247 137.023 74.4857L135.451 73.25C135.489 73.2016 135.524 73.177 135.538 73.1687C135.55 73.1613 135.543 73.1679 135.504 73.1793L136.064 75.0993ZM137.023 74.4857C137.266 74.1766 137.379 73.813 137.379 73.4413H135.379C135.379 73.4256 135.381 73.3943 135.395 73.3545C135.408 73.3139 135.429 73.278 135.451 73.25L137.023 74.4857ZM137.379 73.4413C137.379 72.9905 137.205 72.5726 136.867 72.2578L135.503 73.72C135.474 73.693 135.438 73.6483 135.411 73.5864C135.385 73.5251 135.379 73.4722 135.379 73.4413H137.379ZM136.892 72.2818C136.554 71.9435 136.07 71.7859 135.68 71.693L135.217 73.6386C135.36 73.6727 135.451 73.7044 135.502 73.727C135.527 73.7378 135.535 73.7433 135.532 73.7413C135.529 73.7394 135.508 73.7257 135.478 73.696L136.892 72.2818ZM135.664 71.6894L134.088 71.3404L133.655 73.2931L135.232 73.6421L135.664 71.6894ZM134.098 71.3427C133.673 71.2442 133.313 71.1196 133.01 70.9748L132.148 72.7798C132.603 72.9969 133.104 73.1653 133.645 73.2909L134.098 71.3427ZM133.034 70.9871C132.795 70.8646 132.634 70.719 132.521 70.5572L130.879 71.698C131.197 72.1567 131.622 72.5109 132.123 72.7676L133.034 70.9871ZM132.529 70.5678C132.448 70.4491 132.377 70.2595 132.377 69.9385H130.377C130.377 70.5654 130.521 71.1685 130.871 71.6875L132.529 70.5678ZM132.377 69.9385C132.377 69.5994 132.466 69.3299 132.632 69.0947L131 67.9387C130.581 68.5307 130.377 69.209 130.377 69.9385H132.377ZM132.638 69.0868C132.808 68.841 133.072 68.6175 133.484 68.4376L132.682 66.6053C131.991 66.9078 131.41 67.3479 130.995 67.9466L132.638 69.0868ZM133.484 68.4376C133.879 68.2645 134.395 68.1595 135.061 68.1595V66.1595C134.192 66.1595 133.39 66.2958 132.682 66.6053L133.484 68.4376ZM146.106 67.6894L145.611 68.5584L145.618 68.5625L145.625 68.5664L146.106 67.6894ZM147.553 69.1888L148.443 68.7322V68.7322L147.553 69.1888ZM147.553 73.9195L148.443 74.3761L147.553 73.9195ZM146.106 75.4318L146.591 76.306L146.596 76.3037L146.106 75.4318ZM141.647 75.4318L141.157 76.3038L141.166 76.3088L141.647 75.4318ZM140.199 73.9195L141.089 73.463L140.199 73.9195ZM140.199 69.1888L141.089 69.6454L140.199 69.1888ZM141.647 67.6894L142.127 68.5665L142.136 68.5613L141.647 67.6894ZM142.836 69.2017L142.264 68.3813L142.836 69.2017ZM142.189 70.0936L143.125 70.447L143.127 70.4402L142.189 70.0936ZM142.189 73.0147L141.251 73.3614L142.189 73.0147ZM144.917 73.9066L144.345 73.0862L144.339 73.0904L144.333 73.0946L144.917 73.9066ZM145.563 73.0147L144.625 72.6681L145.563 73.0147ZM145.563 70.0936L144.625 70.4402L144.627 70.447L145.563 70.0936ZM144.917 69.2017L144.333 70.0137L144.339 70.018L144.345 70.0221L144.917 69.2017ZM143.883 68.1595C144.607 68.1595 145.17 68.3071 145.611 68.5584L146.601 66.8205C145.801 66.3652 144.882 66.1595 143.883 66.1595V68.1595ZM145.625 68.5664C146.074 68.8124 146.416 69.1634 146.664 69.6454L148.443 68.7322C148.018 67.9044 147.396 67.2559 146.586 66.8125L145.625 68.5664ZM146.664 69.6454C146.911 70.1278 147.058 70.7517 147.058 71.5542H149.058C149.058 70.5126 148.868 69.5596 148.443 68.7322L146.664 69.6454ZM147.058 71.5542C147.058 72.3566 146.911 72.9806 146.664 73.463L148.443 74.3761C148.868 73.5487 149.058 72.5957 149.058 71.5542H147.058ZM146.664 73.463C146.415 73.9469 146.07 74.3048 145.616 74.5599L146.596 76.3037C147.399 75.8522 148.019 75.2019 148.443 74.3761L146.664 73.463ZM145.62 74.5577C145.177 74.8039 144.611 74.9488 143.883 74.9488V76.9488C144.878 76.9488 145.794 76.7491 146.591 76.306L145.62 74.5577ZM143.883 74.9488C143.155 74.9488 142.582 74.804 142.127 74.5548L141.166 76.3088C141.969 76.749 142.887 76.9488 143.883 76.9488V74.9488ZM142.136 74.5599C141.682 74.3048 141.337 73.9469 141.089 73.463L139.309 74.3761C139.733 75.2019 140.353 75.8522 141.157 76.3037L142.136 74.5599ZM141.089 73.463C140.841 72.9806 140.695 72.3566 140.695 71.5542H138.695C138.695 72.5957 138.885 73.5487 139.309 74.3761L141.089 73.463ZM140.695 71.5542C140.695 70.7517 140.841 70.1278 141.089 69.6454L139.309 68.7322C138.885 69.5596 138.695 70.5126 138.695 71.5542H140.695ZM141.089 69.6454C141.336 69.1634 141.678 68.8124 142.127 68.5664L141.166 66.8125C140.357 67.2559 139.734 67.9044 139.309 68.7322L141.089 69.6454ZM142.136 68.5613C142.589 68.307 143.159 68.1595 143.883 68.1595V66.1595C142.883 66.1595 141.962 66.3653 141.157 66.8176L142.136 68.5613ZM143.883 67.9044C143.305 67.9044 142.746 68.0451 142.264 68.3813L143.407 70.0221C143.494 69.962 143.633 69.9044 143.883 69.9044V67.9044ZM142.264 68.3813C141.778 68.7199 141.453 69.2016 141.251 69.7469L143.127 70.4402C143.219 70.1929 143.324 70.08 143.407 70.0221L142.264 68.3813ZM141.254 69.7402C141.051 70.2771 140.97 70.8935 140.97 71.5542H142.97C142.97 71.0429 143.035 70.6856 143.125 70.447L141.254 69.7402ZM140.97 71.5542C140.97 72.2094 141.052 72.8216 141.251 73.3614L143.127 72.6681C143.034 72.4151 142.97 72.0536 142.97 71.5542H140.97ZM141.251 73.3614C141.453 73.9068 141.778 74.3885 142.264 74.727L143.407 73.0862C143.324 73.0284 143.219 72.9155 143.127 72.6681L141.251 73.3614ZM142.264 74.727C142.746 75.0633 143.305 75.2039 143.883 75.2039V73.2039C143.633 73.2039 143.494 73.1463 143.407 73.0862L142.264 74.727ZM143.883 75.2039C144.459 75.2039 145.02 75.0636 145.5 74.7186L144.333 73.0946C144.262 73.146 144.133 73.2039 143.883 73.2039V75.2039ZM145.488 74.727C145.974 74.3885 146.299 73.9068 146.501 73.3614L144.625 72.6681C144.534 72.9155 144.428 73.0284 144.345 73.0862L145.488 74.727ZM146.501 73.3614C146.7 72.8216 146.783 72.2094 146.783 71.5542H144.783C144.783 72.0536 144.718 72.4151 144.625 72.6681L146.501 73.3614ZM146.783 71.5542C146.783 70.8935 146.701 70.2771 146.498 69.7402L144.627 70.447C144.718 70.6856 144.783 71.0429 144.783 71.5542H146.783ZM146.501 69.7469C146.299 69.2016 145.974 68.7199 145.488 68.3813L144.345 70.0221C144.428 70.08 144.534 70.1929 144.625 70.4402L146.501 69.7469ZM145.5 68.3897C145.02 68.0447 144.459 67.9044 143.883 67.9044V69.9044C144.133 69.9044 144.262 69.9624 144.333 70.0137L145.5 68.3897ZM157.045 67.2888H158.045V66.2888H157.045V67.2888ZM156.075 75.057L156.757 75.7884L156.758 75.788L156.075 75.057ZM150.388 75.057L149.706 75.788L149.711 75.7929L150.388 75.057ZM149.419 67.2888V66.2888H148.419V67.2888H149.419ZM151.655 67.2888H152.655V66.2888H151.655V67.2888ZM152.043 73.7515L151.283 74.4023L151.289 74.4085L151.294 74.4145L152.043 73.7515ZM154.421 73.7515L153.672 73.0885L153.667 73.0945L153.662 73.1007L154.421 73.7515ZM154.822 67.2888V66.2888H153.822V67.2888H154.822ZM156.045 67.2888V72.3426H158.045V67.2888H156.045ZM156.045 72.3426C156.045 73.3765 155.771 73.9731 155.393 74.3259L156.758 75.788C157.672 74.9345 158.045 73.7215 158.045 72.3426H156.045ZM155.393 74.3256C155.009 74.6842 154.348 74.9488 153.232 74.9488V76.9488C154.632 76.9488 155.867 76.6189 156.757 75.7884L155.393 74.3256ZM153.232 74.9488C152.127 74.9488 151.462 74.6857 151.065 74.321L149.711 75.7929C150.607 76.6174 151.837 76.9488 153.232 76.9488V74.9488ZM151.07 74.3259C150.692 73.9731 150.419 73.3765 150.419 72.3426H148.419C148.419 73.7215 148.791 74.9345 149.706 75.788L151.07 74.3259ZM150.419 72.3426V67.2888H148.419V72.3426H150.419ZM149.419 68.2888H151.655V66.2888H149.419V68.2888ZM150.655 67.2888V72.3814H152.655V67.2888H150.655ZM150.655 72.3814C150.655 73.1086 150.805 73.8438 151.283 74.4023L152.802 73.1007C152.764 73.056 152.655 72.8778 152.655 72.3814H150.655ZM151.294 74.4145C151.805 74.9911 152.512 75.2039 153.232 75.2039V73.2039C152.9 73.2039 152.815 73.115 152.791 73.0885L151.294 74.4145ZM153.232 75.2039C153.952 75.2039 154.672 74.9952 155.18 74.4023L153.662 73.1007C153.653 73.111 153.58 73.2039 153.232 73.2039V75.2039ZM155.169 74.4145C155.665 73.8555 155.822 73.1151 155.822 72.3814H153.822C153.822 72.8713 153.711 73.0443 153.672 73.0885L155.169 74.4145ZM155.822 72.3814V67.2888H153.822V72.3814H155.822ZM154.822 68.2888H157.045V66.2888H154.822V68.2888ZM160.986 74.1005H159.986V75.1005H160.986V74.1005ZM165.265 74.1005H166.265V73.1005H165.265V74.1005ZM165.265 75.8196V76.8196H166.265V75.8196H165.265ZM158.763 75.8196H157.763V76.8196H158.763V75.8196ZM158.763 67.2888V66.2888H157.763V67.2888H158.763ZM160.986 67.2888H161.986V66.2888H160.986V67.2888ZM160.986 75.1005H165.265V73.1005H160.986V75.1005ZM164.265 74.1005V75.8196H166.265V74.1005H164.265ZM165.265 74.8196H158.763V76.8196H165.265V74.8196ZM159.763 75.8196V67.2888H157.763V75.8196H159.763ZM158.763 68.2888H160.986V66.2888H158.763V68.2888ZM159.986 67.2888V74.1005H161.986V67.2888H159.986ZM173.921 67.2888H174.921V66.2888H173.921V67.2888ZM172.952 75.057L173.634 75.7884L173.634 75.788L172.952 75.057ZM167.264 75.057L166.582 75.788L166.587 75.7929L167.264 75.057ZM166.295 67.2888V66.2888H165.295V67.2888H166.295ZM168.531 67.2888H169.531V66.2888H168.531V67.2888ZM168.919 73.7515L168.16 74.4023L168.165 74.4085L168.17 74.4145L168.919 73.7515ZM171.297 73.7515L170.549 73.0885L170.543 73.0945L170.538 73.1007L171.297 73.7515ZM171.698 67.2888V66.2888H170.698V67.2888H171.698ZM172.921 67.2888V72.3426H174.921V67.2888H172.921ZM172.921 72.3426C172.921 73.3765 172.647 73.9731 172.269 74.3259L173.634 75.788C174.548 74.9345 174.921 73.7215 174.921 72.3426H172.921ZM172.27 74.3256C171.885 74.6842 171.224 74.9488 170.108 74.9488V76.9488C171.508 76.9488 172.743 76.6189 173.634 75.7884L172.27 74.3256ZM170.108 74.9488C169.004 74.9488 168.338 74.6857 167.941 74.321L166.587 75.7929C167.484 76.6174 168.713 76.9488 170.108 76.9488V74.9488ZM167.947 74.3259C167.569 73.9731 167.295 73.3765 167.295 72.3426H165.295C165.295 73.7215 165.668 74.9345 166.582 75.788L167.947 74.3259ZM167.295 72.3426V67.2888H165.295V72.3426H167.295ZM166.295 68.2888H168.531V66.2888H166.295V68.2888ZM167.531 67.2888V72.3814H169.531V67.2888H167.531ZM167.531 72.3814C167.531 73.1086 167.681 73.8438 168.16 74.4023L169.678 73.1007C169.64 73.056 169.531 72.8778 169.531 72.3814H167.531ZM168.17 74.4145C168.681 74.9911 169.389 75.2039 170.108 75.2039V73.2039C169.776 73.2039 169.691 73.115 169.667 73.0885L168.17 74.4145ZM170.108 75.2039C170.828 75.2039 171.548 74.9952 172.056 74.4023L170.538 73.1007C170.529 73.111 170.457 73.2039 170.108 73.2039V75.2039ZM172.046 74.4145C172.541 73.8555 172.698 73.1151 172.698 72.3814H170.698C170.698 72.8713 170.588 73.0443 170.549 73.0885L172.046 74.4145ZM172.698 72.3814V67.2888H170.698V72.3814H172.698ZM171.698 68.2888H173.921V66.2888H171.698V68.2888ZM182.813 67.2888H183.813V66.2888H182.813V67.2888ZM182.813 69.0078V70.0078H183.813V69.0078H182.813ZM180.034 69.0078V68.0078H179.034V69.0078H180.034ZM180.034 75.8196V76.8196H181.034V75.8196H180.034ZM177.811 75.8196H176.811V76.8196H177.811V75.8196ZM177.811 69.0078H178.811V68.0078H177.811V69.0078ZM175.019 69.0078H174.019V70.0078H175.019V69.0078ZM175.019 67.2888V66.2888H174.019V67.2888H175.019ZM181.813 67.2888V69.0078H183.813V67.2888H181.813ZM182.813 68.0078H180.034V70.0078H182.813V68.0078ZM179.034 69.0078V75.8196H181.034V69.0078H179.034ZM180.034 74.8196H177.811V76.8196H180.034V74.8196ZM178.811 75.8196V69.0078H176.811V75.8196H178.811ZM177.811 68.0078H175.019V70.0078H177.811V68.0078ZM176.019 69.0078V67.2888H174.019V69.0078H176.019ZM175.019 68.2888H182.813V66.2888H175.019V68.2888ZM186.307 67.2888H187.307V66.2888H186.307V67.2888ZM186.307 75.8196V76.8196H187.307V75.8196H186.307ZM184.084 75.8196H183.084V76.8196H184.084V75.8196ZM184.084 67.2888V66.2888H183.084V67.2888H184.084ZM185.307 67.2888V75.8196H187.307V67.2888H185.307ZM186.307 74.8196H184.084V76.8196H186.307V74.8196ZM185.084 75.8196V67.2888H183.084V75.8196H185.084ZM184.084 68.2888H186.307V66.2888H184.084V68.2888ZM194.248 67.6894L193.753 68.5584L193.761 68.5625L193.768 68.5664L194.248 67.6894ZM195.696 69.1888L196.586 68.7322V68.7322L195.696 69.1888ZM195.696 73.9195L196.586 74.3761L195.696 73.9195ZM194.248 75.4318L194.734 76.306L194.738 76.3037L194.248 75.4318ZM189.789 75.4318L189.299 76.3038L189.308 76.3088L189.789 75.4318ZM188.341 73.9195L189.231 73.463L188.341 73.9195ZM188.341 69.1888L189.231 69.6454L188.341 69.1888ZM189.789 67.6894L190.27 68.5665L190.279 68.5613L189.789 67.6894ZM190.978 69.2017L190.406 68.3813L190.978 69.2017ZM190.332 70.0936L191.267 70.447L191.27 70.4402L190.332 70.0936ZM190.332 73.0147L189.394 73.3614L190.332 73.0147ZM193.059 73.9066L192.487 73.0862L192.481 73.0904L192.475 73.0946L193.059 73.9066ZM193.705 73.0147L192.767 72.6681L193.705 73.0147ZM193.705 70.0936L192.767 70.4402L192.77 70.447L193.705 70.0936ZM193.059 69.2017L192.475 70.0137L192.481 70.018L192.487 70.0221L193.059 69.2017ZM192.025 68.1595C192.749 68.1595 193.312 68.3071 193.753 68.5584L194.743 66.8205C193.944 66.3652 193.024 66.1595 192.025 66.1595V68.1595ZM193.768 68.5664C194.217 68.8124 194.559 69.1634 194.806 69.6454L196.586 68.7322C196.161 67.9044 195.538 67.2559 194.729 66.8125L193.768 68.5664ZM194.806 69.6454C195.054 70.1278 195.2 70.7517 195.2 71.5542H197.2C197.2 70.5126 197.01 69.5596 196.586 68.7322L194.806 69.6454ZM195.2 71.5542C195.2 72.3566 195.054 72.9806 194.806 73.463L196.586 74.3761C197.01 73.5487 197.2 72.5957 197.2 71.5542H195.2ZM194.806 73.463C194.558 73.9469 194.213 74.3048 193.759 74.5599L194.738 76.3037C195.542 75.8522 196.162 75.2019 196.586 74.3761L194.806 73.463ZM193.763 74.5577C193.319 74.8039 192.753 74.9488 192.025 74.9488V76.9488C193.021 76.9488 193.936 76.7491 194.734 76.306L193.763 74.5577ZM192.025 74.9488C191.298 74.9488 190.724 74.804 190.269 74.5548L189.308 76.3088C190.112 76.749 191.029 76.9488 192.025 76.9488V74.9488ZM190.279 74.5599C189.824 74.3048 189.479 73.9469 189.231 73.463L187.452 74.3761C187.875 75.2019 188.495 75.8522 189.299 76.3037L190.279 74.5599ZM189.231 73.463C188.983 72.9806 188.837 72.3566 188.837 71.5542H186.837C186.837 72.5957 187.027 73.5487 187.452 74.3761L189.231 73.463ZM188.837 71.5542C188.837 70.7517 188.983 70.1278 189.231 69.6454L187.452 68.7322C187.027 69.5596 186.837 70.5126 186.837 71.5542H188.837ZM189.231 69.6454C189.478 69.1634 189.821 68.8124 190.269 68.5664L189.308 66.8125C188.499 67.2559 187.876 67.9044 187.452 68.7322L189.231 69.6454ZM190.279 68.5613C190.732 68.307 191.302 68.1595 192.025 68.1595V66.1595C191.025 66.1595 190.104 66.3653 189.299 66.8176L190.279 68.5613ZM192.025 67.9044C191.447 67.9044 190.889 68.0451 190.406 68.3813L191.55 70.0221C191.636 69.962 191.776 69.9044 192.025 69.9044V67.9044ZM190.406 68.3813C189.921 68.7199 189.595 69.2016 189.394 69.7469L191.27 70.4402C191.361 70.1929 191.467 70.08 191.55 70.0221L190.406 68.3813ZM189.396 69.7402C189.193 70.2771 189.112 70.8935 189.112 71.5542H191.112C191.112 71.0429 191.177 70.6856 191.267 70.447L189.396 69.7402ZM189.112 71.5542C189.112 72.2094 189.194 72.8216 189.394 73.3614L191.27 72.6681C191.176 72.4151 191.112 72.0536 191.112 71.5542H189.112ZM189.394 73.3614C189.595 73.9068 189.921 74.3885 190.406 74.727L191.55 73.0862C191.467 73.0284 191.361 72.9155 191.27 72.6681L189.394 73.3614ZM190.406 74.727C190.889 75.0633 191.447 75.2039 192.025 75.2039V73.2039C191.776 73.2039 191.636 73.1463 191.55 73.0862L190.406 74.727ZM192.025 75.2039C192.602 75.2039 193.163 75.0636 193.643 74.7186L192.475 73.0946C192.404 73.146 192.276 73.2039 192.025 73.2039V75.2039ZM193.631 74.727C194.117 74.3885 194.442 73.9068 194.643 73.3614L192.767 72.6681C192.676 72.9155 192.57 73.0284 192.487 73.0862L193.631 74.727ZM194.643 73.3614C194.843 72.8216 194.925 72.2094 194.925 71.5542H192.925C192.925 72.0536 192.861 72.4151 192.767 72.6681L194.643 73.3614ZM194.925 71.5542C194.925 70.8935 194.844 70.2771 194.641 69.7402L192.77 70.447C192.86 70.6856 192.925 71.0429 192.925 71.5542H194.925ZM194.643 69.7469C194.442 69.2016 194.117 68.7199 193.631 68.3813L192.487 70.0221C192.57 70.08 192.676 70.1929 192.767 70.4402L194.643 69.7469ZM193.643 68.3897C193.163 68.0447 192.602 67.9044 192.025 67.9044V69.9044C192.276 69.9044 192.404 69.9624 192.475 70.0137L193.643 68.3897ZM205.42 67.2888H206.42V66.2888H205.42V67.2888ZM205.42 75.8196V76.8196H206.42V75.8196H205.42ZM202.951 75.8196L202.084 76.3175L202.372 76.8196H202.951V75.8196ZM200.301 71.2052L199.411 71.6596L199.422 71.6817L199.434 71.7031L200.301 71.2052ZM199.655 69.9385L200.546 69.484L200.267 68.9385H199.655V69.9385ZM199.642 69.9385V68.9385H198.609L198.643 69.9713L199.642 69.9385ZM199.694 71.5154H200.694V71.499L200.693 71.4826L199.694 71.5154ZM199.694 75.8196V76.8196H200.694V75.8196H199.694ZM197.729 75.8196H196.729V76.8196H197.729V75.8196ZM197.729 67.2888V66.2888H196.729V67.2888H197.729ZM200.198 67.2888L201.065 66.7908L200.777 66.2888H200.198V67.2888ZM202.848 71.9032L203.738 71.4487L203.727 71.4266L203.715 71.4052L202.848 71.9032ZM203.494 73.1699L202.603 73.6243L202.881 74.1699H203.494V73.1699ZM203.507 73.1699V74.1699H204.54L204.506 73.1371L203.507 73.1699ZM203.455 71.5929H202.455V71.6093L202.456 71.6257L203.455 71.5929ZM203.455 67.2888V66.2888H202.455V67.2888H203.455ZM204.42 67.2888V75.8196H206.42V67.2888H204.42ZM205.42 74.8196H202.951V76.8196H205.42V74.8196ZM203.818 75.3216L201.168 70.7072L199.434 71.7031L202.084 76.3175L203.818 75.3216ZM201.192 70.7507L200.546 69.484L198.764 70.393L199.411 71.6596L201.192 70.7507ZM199.655 68.9385H199.642V70.9385H199.655V68.9385ZM198.643 69.9713L198.694 71.5482L200.693 71.4826L200.642 69.9057L198.643 69.9713ZM198.694 71.5154V75.8196H200.694V71.5154H198.694ZM199.694 74.8196H197.729V76.8196H199.694V74.8196ZM198.729 75.8196V67.2888H196.729V75.8196H198.729ZM197.729 68.2888H200.198V66.2888H197.729V68.2888ZM199.331 67.7867L201.98 72.4011L203.715 71.4052L201.065 66.7908L199.331 67.7867ZM201.957 72.3576L202.603 73.6243L204.385 72.7154L203.738 71.4487L201.957 72.3576ZM203.494 74.1699H203.507V72.1699H203.494V74.1699ZM204.506 73.1371L204.455 71.5602L202.456 71.6257L202.507 73.2026L204.506 73.1371ZM204.455 71.5929V67.2888H202.455V71.5929H204.455ZM203.455 68.2888H205.42V66.2888H203.455V68.2888Z" fill="black"/>
        </g>
        <defs>
        <linearGradient id="paint0_linear_3_827" x1="-1.61572" y1="28.9196" x2="207.384" y2="28.9196" gradientUnits="userSpaceOnUse">
        <stop stop-color="#2A2D3E"/>
        <stop offset="1" stop-color="#FFC633"/>
        </linearGradient>
        <clipPath id="clip0_3_827">
        <rect width="206" height="80" fill="white"/>
        </clipPath>
        </defs>
    </symbol>
    
</svg>