<svg>
    <symbol id="ben1" width="80" height="80" viewBox="0 0 80 80" fill="none" xmlns="http://www.w3.org/2000/svg">
        <g opacity="0.7">
        <path d="M37.0336 0C39.0065 0 40.9951 0 42.9681 0C43.1717 0.0469519 43.3752 0.109554 43.5788 0.125205C49.6698 0.657327 55.3695 2.45715 60.568 5.66553C70.4328 11.7223 76.6335 20.4241 79.1858 31.7082C79.5772 33.4141 79.7025 35.1513 80 36.8729C80 38.9544 80 41.036 80 43.1175C79.953 43.3523 79.8904 43.5714 79.8591 43.8061C78.7943 53.9947 74.5509 62.6339 66.9723 69.5201C58.3759 77.3298 48.198 80.7886 36.6108 79.8496C26.3859 79.0201 17.7269 74.7788 10.7589 67.2664C2.55399 58.3925 -0.953473 47.8284 0.220901 35.84C1.20737 25.8705 5.51341 17.4192 12.8885 10.5955C18.87 5.05516 25.9005 1.67462 33.9489 0.438218C34.9824 0.266061 36.0158 0.140856 37.0336 0ZM12.45 37.4676C12.4814 47.3275 15.0023 53.7443 20.1226 59.0186C26.5895 65.6857 34.5596 68.3463 43.7667 67.2664C47.4777 66.8282 50.9538 65.5762 54.1481 63.6199C55.2442 62.9469 55.6044 61.8044 55.1659 60.7245C54.7588 59.6915 53.741 59.1907 52.5353 59.3942C52.1595 59.4568 51.862 59.6446 51.5332 59.8324C47.3054 62.2113 42.8115 63.2286 37.9574 62.8373C25.2742 61.82 15.613 49.9412 17.2258 37.2798C18.8386 24.6498 30.0656 15.7915 42.7019 17.2001C57.4834 18.8434 66.8627 34.4158 61.4136 48.2353C60.7873 49.816 59.9574 51.2872 59.0805 52.7427C58.5638 53.5878 58.5794 54.4955 59.1275 55.325C59.6599 56.1388 60.4741 56.3267 61.3979 56.2171C62.2278 56.1232 62.7289 55.5598 63.136 54.9024C66.8627 49.1274 68.2406 42.7889 67.2541 36.0278C65.0933 21.191 51.6115 10.9085 36.7361 12.6457C22.581 14.3047 12.2778 26.5435 12.45 37.4676ZM52.551 34.3688C52.5353 30.91 51.2044 28.6407 48.746 27.0287C47.3994 26.1366 45.8805 25.8079 44.299 25.7923C43.6727 25.7923 43.3909 25.5418 43.4222 24.9158C43.4378 24.5089 43.4378 24.0863 43.3752 23.6638C43.1873 22.2865 42.2322 21.4883 40.9325 21.5509C39.7112 21.6135 38.85 22.5526 38.7873 23.8985C38.6934 25.9331 38.6621 25.9488 36.6421 25.7766C36.1567 25.7297 35.9375 25.5262 35.9375 25.0567C35.9375 24.5872 35.9532 24.1176 35.8905 23.6481C35.7183 22.3335 34.7631 21.504 33.5105 21.5509C32.2578 21.5979 31.3653 22.49 31.3027 23.8203C31.287 24.102 31.3027 24.3993 31.287 24.6811C31.2713 25.6984 31.2087 25.761 30.2379 25.7766C29.8934 25.7766 29.5646 25.761 29.2201 25.7923C27.9831 25.9018 27.1062 26.7782 27.0592 27.952C26.9966 29.1884 27.7169 30.1118 28.9382 30.3466C29.314 30.4248 29.7212 30.4092 30.097 30.4248C31.24 30.4405 31.2713 30.4718 31.2713 31.6299C31.2713 36.3408 31.2713 41.0516 31.2713 45.7625C31.2713 46.7485 31.2557 47.7345 31.2713 48.7361C31.2713 49.2995 31.0365 49.5499 30.4728 49.5343C30.0343 49.5186 29.5802 49.5186 29.1418 49.5656C27.8265 49.7221 27.0123 50.6611 27.0436 51.9288C27.0749 53.1809 27.9831 54.073 29.2984 54.1669C29.7212 54.1982 30.1283 54.1825 30.5511 54.1825C31.0365 54.1825 31.2713 54.4016 31.2713 54.8868C31.2713 55.3563 31.2557 55.8258 31.3183 56.2954C31.4592 57.4222 32.3518 58.236 33.4792 58.3143C34.5752 58.3769 35.5617 57.657 35.8279 56.5301C35.9219 56.1075 35.9532 55.6537 35.9375 55.2155C35.8905 54.4329 36.188 54.1512 36.971 54.1669C38.9909 54.1982 38.7717 54.0886 38.803 55.9041C38.8343 57.3126 39.6955 58.2204 40.9951 58.2673C42.3418 58.3143 43.2813 57.4692 43.4222 56.0449C43.4535 55.7632 43.4692 55.4659 43.4378 55.1842C43.3596 54.386 43.7354 54.1199 44.4869 54.1669C45.2386 54.2138 45.9902 54.1825 46.7574 54.1669C50.4528 54.1043 53.6157 51.8036 54.7431 48.3761C55.8705 44.9486 54.7275 41.302 51.7837 39.0483C51.267 38.6571 51.2357 38.3597 51.5489 37.8276C52.2378 36.6381 52.598 35.3078 52.551 34.3688Z" fill="url(#paint0_linear_4_944)"/>
        <path d="M35.9219 39.9874C35.9219 37.1546 35.9375 34.3219 35.9062 31.4734C35.8905 30.7066 36.1567 30.4092 36.9396 30.4248C39.445 30.4561 41.9346 30.4248 44.44 30.4405C46.4599 30.4561 47.9474 31.9273 47.9631 33.868C47.9788 35.7461 46.4286 37.2955 44.4713 37.3424C43.4378 37.3737 42.3887 37.3424 41.3553 37.3581C39.8991 37.3894 38.9126 38.3128 38.9126 39.6431C38.9126 41.0047 39.8364 41.9437 41.3083 41.975C43.0464 42.022 44.8001 41.975 46.5382 41.9907C48.8869 42.0063 50.5154 43.587 50.4997 45.7938C50.4841 47.9692 48.8556 49.5186 46.5382 49.5186C43.3596 49.5343 40.1809 49.5186 37.0179 49.5186C35.9845 49.5186 35.9219 49.456 35.9219 48.3918C35.9219 45.606 35.9219 42.7889 35.9219 39.9874Z" fill="url(#paint1_linear_4_944)"/>
        </g>
        <defs>
        <linearGradient id="paint0_linear_4_944" x1="0" y1="40" x2="80" y2="40" gradientUnits="userSpaceOnUse">
        <stop stop-color="#FCEABB"/>
        <stop offset="1" stop-color="#F8B500"/>
        </linearGradient>
        <linearGradient id="paint1_linear_4_944" x1="0" y1="40" x2="80" y2="40" gradientUnits="userSpaceOnUse">
        <stop stop-color="#FCEABB"/>
        <stop offset="1" stop-color="#F8B500"/>
        </linearGradient>
        </defs>
    </symbol>
    <symbol id="ben2" width="80" height="80" viewBox="0 0 80 80" fill="none" xmlns="http://www.w3.org/2000/svg">
        <path d="M24.5399 0C36.1677 0 47.7955 0 59.4233 0C59.4233 0.759537 59.4372 1.51907 59.4372 2.27861C59.4372 7.36061 59.4372 12.4288 59.4372 17.5108C59.4372 18.4084 59.6305 19.1956 60.3762 19.7756C60.9424 20.2175 61.6053 20.2589 62.2682 20.2589C67.7368 20.2589 73.2055 20.2589 78.6742 20.2589C79.6823 20.2589 79.7099 20.2866 79.7099 21.3085C79.7099 38.4878 79.7099 55.681 79.7099 72.8603C79.7099 76.9204 76.6718 79.9862 72.6255 79.9862C60.68 80 48.7346 79.9862 36.7891 79.9862C36.5544 79.9862 36.292 80.0552 36.0434 79.8205C36.2644 79.6271 36.4439 79.4614 36.6372 79.3095C42.2302 74.9871 45.5031 69.2974 46.5664 62.3235C46.746 61.1773 46.7322 61.1773 47.8922 61.1773C53.8028 61.1773 59.6995 61.1773 65.6101 61.1773C65.9139 61.1773 66.2039 61.1911 66.5078 61.1635C67.6816 61.0392 68.5654 60.1277 68.6345 58.9953C68.7035 57.9182 67.9992 56.9791 66.8668 56.6753C66.4387 56.551 65.9968 56.5786 65.5687 56.5786C59.5891 56.5786 53.6232 56.5648 47.6436 56.5924C46.9807 56.5924 46.7045 56.3853 46.6079 55.7224C46.235 52.9467 45.4755 50.2814 44.274 47.7542C44.0531 47.2847 44.1912 47.1189 44.6745 47.1327C44.8817 47.1466 45.0888 47.1327 45.2959 47.1327C52.0765 47.1327 58.8571 47.1327 65.6239 47.1327C66.0382 47.1327 66.4525 47.1466 66.853 47.0499C67.8611 46.8013 68.5654 45.9727 68.6345 44.937C68.7035 43.9565 68.0959 43.0589 67.1154 42.6998C66.6044 42.5065 66.0797 42.5203 65.5549 42.5203C57.6695 42.5203 49.7979 42.5065 41.9126 42.5341C41.1392 42.5341 40.6421 42.2717 40.1449 41.7055C37.6868 38.8883 34.7039 36.7616 31.279 35.2978C27.578 33.7097 23.6975 32.9915 19.6512 33.2263C18.8226 33.2815 18.726 33.1849 18.726 32.3563C18.726 23.808 18.726 15.2598 18.7398 6.71155C18.7398 4.98533 19.4441 3.50768 20.5903 2.22337C21.6536 1.03573 23.007 0.372864 24.5399 0ZM49.1903 33.0606C53.6509 33.0606 58.0976 33.0606 62.5582 33.0606C63.801 33.0606 65.0439 33.0744 66.273 33.0468C67.3778 33.0192 68.1925 32.4391 68.4964 31.5139C69.0488 29.8567 67.8887 28.4481 65.9416 28.4481C54.8109 28.4343 43.6664 28.4481 32.5357 28.4481C32.1214 28.4481 31.7071 28.4896 31.3205 28.6277C30.3676 28.9867 29.7461 29.8843 29.8014 30.8648C29.8566 31.9006 30.5471 32.743 31.569 32.9639C31.9419 33.0468 32.3424 33.0606 32.7291 33.0606C38.2115 33.0606 43.694 33.0606 49.1903 33.0606Z" fill="url(#paint0_linear_4_901)"/>
        <path d="M-0.000106242 56.6615C0.262279 55.1977 0.510855 53.7338 0.994197 52.3114C2.94138 46.6494 6.57335 42.4374 11.973 39.8412C17.704 37.0792 23.5732 36.9549 29.3871 39.4545C35.0491 41.885 39.0263 46.0556 41.0149 51.9109C43.5697 59.4511 42.2854 66.425 37.2034 72.5289C33.1572 77.3762 27.8542 79.9034 21.4741 80C14.8454 80.1105 9.40435 77.5557 5.05427 72.6532C2.29232 69.5322 0.676573 65.8312 0.110372 61.6883C0.0827524 61.4811 0.0275133 61.2878 -0.013916 61.0806C-0.000106242 59.603 -0.000106242 58.1253 -0.000106242 56.6615ZM30.989 54.7419C30.989 53.6648 30.3952 52.8362 29.4423 52.5324C28.4204 52.2148 27.6056 52.5738 26.8875 53.2919C24.0703 56.1229 21.2393 58.9401 18.4359 61.7711C17.9802 62.2268 17.6764 62.2959 17.2069 61.7987C16.4473 60.9702 15.6187 60.1968 14.8316 59.4096C14.5554 59.1335 14.2516 58.8849 13.8787 58.7606C12.8844 58.443 11.8625 58.802 11.2963 59.672C10.7025 60.5835 10.7853 61.6883 11.5863 62.503C13.0501 63.9945 14.5278 65.4721 16.0054 66.936C17.1654 68.096 18.4912 68.1374 19.6512 66.9912C23.2003 63.4697 26.7356 59.9206 30.2709 56.3853C30.7128 55.9158 30.9614 55.322 30.989 54.7419Z" fill="url(#paint1_linear_4_901)"/>
        <path d="M71.1341 15.7017C69.0626 15.7017 67.0049 15.7017 64.9335 15.7017C64.0634 15.7017 63.9668 15.6189 63.9668 14.7626C63.9668 10.6059 63.9668 6.44916 63.9668 2.30623C63.9668 2.04385 63.8425 1.68479 64.1739 1.57431C64.4363 1.49146 64.5882 1.82289 64.7539 1.98861C69.0764 6.29726 73.385 10.6197 77.7075 14.9422C77.8732 15.1079 78.2047 15.2598 78.0804 15.536C77.9699 15.7984 77.6385 15.7017 77.3899 15.7017C75.3184 15.7017 73.2193 15.7017 71.1341 15.7017Z" fill="url(#paint2_linear_4_901)"/>
        <defs>
        <linearGradient id="paint0_linear_4_901" x1="-0.013916" y1="40.0017" x2="79.7099" y2="40.0017" gradientUnits="userSpaceOnUse">
        <stop stop-color="#FCEABB"/>
        <stop offset="1" stop-color="#F8B500"/>
        </linearGradient>
        <linearGradient id="paint1_linear_4_901" x1="-0.013916" y1="40.0017" x2="79.7099" y2="40.0017" gradientUnits="userSpaceOnUse">
        <stop stop-color="#FCEABB"/>
        <stop offset="1" stop-color="#F8B500"/>
        </linearGradient>
        <linearGradient id="paint2_linear_4_901" x1="-0.013916" y1="40.0017" x2="79.7099" y2="40.0017" gradientUnits="userSpaceOnUse">
        <stop stop-color="#FCEABB"/>
        <stop offset="1" stop-color="#F8B500"/>
        </linearGradient>
        </defs>
    </symbol>
    <symbol id="ben3" width="80" height="80" viewBox="0 0 80 80" fill="none" xmlns="http://www.w3.org/2000/svg">
        <path d="M0.0136719 39.3164C0.524633 38.0735 1.4637 37.5764 2.78944 37.6178C4.39137 37.6731 6.00711 37.604 7.60905 37.6454C11.0477 37.7145 13.9615 40.3936 14.3758 43.8322C14.4587 44.4951 14.4863 45.158 14.4863 45.8208C14.4863 54.6176 14.4863 63.4007 14.4863 72.1975C14.4863 73.468 14.3482 74.7247 13.7958 75.8847C12.8291 77.9009 11.2686 79.2267 9.1005 79.8205C8.92097 79.8757 8.75526 79.931 8.57573 79.9862C5.91044 79.9862 3.24516 79.9724 0.579872 80C0.11034 80 0.0136719 79.9034 0.0136719 79.4338C0.0136719 66.066 0.0136719 52.6843 0.0136719 39.3164Z" fill="url(#paint0_linear_4_907)"/>
        <path d="M37.5486 75.3185C31.7347 75.3185 25.9208 75.3185 20.1069 75.3185C19.0297 75.3185 19.0159 75.3185 19.0159 74.269C19.0159 64.5745 19.0159 54.8801 19.0021 45.1856C19.0021 44.5642 19.1954 44.1913 19.7478 43.8599C23.6974 41.4846 27.9094 40.7665 32.3976 41.8298C35.0214 42.4651 37.4105 43.6389 39.3853 45.517C40.4763 46.5528 41.6639 47.0499 43.2106 47.0223C46.884 46.9394 50.5574 46.9809 54.2308 47.0085C56.468 47.0223 58.1804 48.3618 58.7742 50.53C59.3128 52.4772 58.4566 54.6315 56.7028 55.7363C55.9018 56.2472 55.0318 56.4406 54.0789 56.4406C48.0578 56.4268 42.0368 56.4406 36.0295 56.4406C35.3805 56.4406 34.759 56.4958 34.1928 56.8963C33.3919 57.4625 33.1019 58.2496 33.2676 59.1749C33.4195 60.0725 34.0271 60.6249 34.8557 60.9149C35.2562 61.053 35.6567 61.0668 36.0848 61.0668C42.3958 61.0668 48.7207 61.0807 55.0318 61.053C57.117 61.053 58.7466 60.183 60.0309 58.4982C62.1852 55.6672 64.4638 52.9329 66.701 50.1709C68.3582 48.1133 70.0292 46.0694 71.6725 44.0118C72.8464 42.5479 74.904 41.9403 76.7683 42.5479C78.5912 43.1418 79.8893 44.8265 79.9722 46.7047C80.0274 47.8923 79.7236 48.9695 79.047 49.95C75.8983 54.521 72.7497 59.1059 69.6149 63.6907C68.3582 65.5274 67.1291 67.3779 65.831 69.2008C63.0829 73.0814 59.3266 75.2495 54.5484 75.3185C48.8864 75.3738 43.2106 75.3185 37.5486 75.3185Z" fill="url(#paint1_linear_4_907)"/>
        <path d="M70.4711 32.9916C69.0349 33.0882 67.9163 32.3701 66.8944 31.4172C62.9172 27.7024 58.9261 24.0014 54.9351 20.3004C51.8832 17.4694 48.8312 14.6522 45.7931 11.835C44.9092 11.0202 44.8816 10.9788 43.984 11.7659C42.5063 13.0779 41.0701 14.4312 39.6201 15.7708C36.3196 18.7951 33.0328 21.8195 29.7323 24.8576C27.9508 26.501 26.1832 28.1858 24.4017 29.8429C23.5731 30.6025 22.7584 31.3758 21.8883 32.0939C20.245 33.4335 17.483 33.2954 15.8949 31.8453C14.1687 30.2572 13.8234 27.6886 15.0249 25.8243C15.7706 24.6505 16.903 23.8771 17.8697 22.9519C19.7755 21.129 21.7641 19.3889 23.7112 17.6075C27.1361 14.4865 30.5747 11.3655 33.9995 8.24445C36.4162 6.03489 38.902 3.88056 41.222 1.56052C43.3211 -0.538565 46.525 -0.27618 48.265 1.43623C50.9441 4.0739 53.7889 6.54585 56.5509 9.10066C60.4728 12.705 64.3948 16.3094 68.3168 19.8999C70.2502 21.6675 72.2526 23.3661 74.0755 25.2443C76.3403 27.5643 75.3598 31.6382 72.3078 32.743C71.7416 32.9363 71.134 33.033 70.4711 32.9916Z" fill="url(#paint2_linear_4_907)"/>
        <path d="M44.8264 33.0054C43.404 33.0054 41.9816 32.9916 40.5592 33.0054C38.8744 33.0192 37.8663 34.0135 37.8248 35.7121C37.811 36.5821 37.7972 37.4521 37.8248 38.3359C37.8386 38.916 37.6729 39.0126 37.1481 38.7641C34.2205 37.3278 31.0857 36.8583 27.8542 36.8721C26.7494 36.8721 25.6722 37.1069 24.5813 37.3002C24.3051 37.3555 23.9598 37.5626 23.7665 37.2035C23.5732 36.8445 23.8079 36.5545 24.0703 36.3059C25.6446 34.8697 27.2189 33.4197 28.7932 31.9835C30.6714 30.2572 32.5219 28.531 34.4 26.8048C37.7143 23.7528 41.0287 20.7147 44.3292 17.6627C44.6883 17.3313 44.9645 17.3175 45.3235 17.6489C46.6493 18.878 48.0026 20.0932 49.3284 21.3223C53.6094 25.2719 57.8904 29.2353 62.1576 33.1987C63.221 34.1792 64.2705 35.1735 65.3477 36.1402C65.762 36.5131 65.9553 36.9412 65.9415 37.5212C65.9001 39.4269 65.9139 41.3327 65.9277 43.2384C65.9277 43.6803 65.8172 44.0394 65.541 44.3708C64.7262 45.3651 63.9115 46.3594 63.1243 47.3675C62.8205 47.7542 62.6134 47.7404 62.3648 47.2985C60.4176 43.9013 57.3933 42.4236 53.568 42.3822C51.5517 42.3546 51.8279 42.6584 51.8141 40.6284C51.8003 38.9988 51.8141 37.3693 51.8141 35.7397C51.8003 33.9444 50.8751 33.0192 49.0936 33.0054C47.6712 32.9916 46.2488 33.0054 44.8264 33.0054Z" fill="url(#paint3_linear_4_907)"/>
        <path d="M70.623 8.70017C70.623 10.8131 70.623 12.926 70.623 15.0389C70.623 15.2184 70.7059 15.4531 70.5126 15.536C70.3054 15.6327 70.1949 15.3979 70.0706 15.2874C67.6677 13.0779 65.2786 10.8683 62.8757 8.65874C60.9148 6.84966 58.9538 5.05439 56.9928 3.25912C56.4266 2.73435 56.3575 1.79529 56.9099 1.00813C57.3518 0.35907 57.9871 1.59685e-05 58.7742 1.59685e-05C61.9643 -0.0137938 65.1544 -0.0276036 68.3582 1.59685e-05C69.7254 0.0138257 70.623 0.95289 70.6368 2.33387C70.6368 4.47438 70.623 6.58727 70.623 8.70017Z" fill="url(#paint4_linear_4_907)"/>
        <path d="M44.8266 37.6455C45.4204 37.6455 46.0142 37.6593 46.6218 37.6455C47.0361 37.6317 47.2018 37.825 47.2018 38.2255C47.188 39.4131 47.188 40.6146 47.2018 41.8022C47.2018 42.2165 47.0085 42.3822 46.608 42.3684C45.4342 42.3546 44.2604 42.3684 43.1003 42.3684C42.6722 42.3684 42.4651 42.1612 42.4651 41.7331C42.4651 40.5593 42.4651 39.3855 42.4651 38.2255C42.4651 37.825 42.6308 37.6317 43.0451 37.6455C43.6251 37.6455 44.2327 37.6455 44.8266 37.6455Z" fill="url(#paint5_linear_4_907)"/>
        <defs>
        <linearGradient id="paint0_linear_4_907" x1="0.0136719" y1="39.992" x2="79.9786" y2="39.992" gradientUnits="userSpaceOnUse">
        <stop stop-color="#FCEABB"/>
        <stop offset="1" stop-color="#F8B500"/>
        </linearGradient>
        <linearGradient id="paint1_linear_4_907" x1="0.0136719" y1="39.992" x2="79.9786" y2="39.992" gradientUnits="userSpaceOnUse">
        <stop stop-color="#FCEABB"/>
        <stop offset="1" stop-color="#F8B500"/>
        </linearGradient>
        <linearGradient id="paint2_linear_4_907" x1="0.0136719" y1="39.992" x2="79.9786" y2="39.992" gradientUnits="userSpaceOnUse">
        <stop stop-color="#FCEABB"/>
        <stop offset="1" stop-color="#F8B500"/>
        </linearGradient>
        <linearGradient id="paint3_linear_4_907" x1="0.0136719" y1="39.992" x2="79.9786" y2="39.992" gradientUnits="userSpaceOnUse">
        <stop stop-color="#FCEABB"/>
        <stop offset="1" stop-color="#F8B500"/>
        </linearGradient>
        <linearGradient id="paint4_linear_4_907" x1="0.0136719" y1="39.992" x2="79.9786" y2="39.992" gradientUnits="userSpaceOnUse">
        <stop stop-color="#FCEABB"/>
        <stop offset="1" stop-color="#F8B500"/>
        </linearGradient>
        <linearGradient id="paint5_linear_4_907" x1="42.4651" y1="40.007" x2="47.2018" y2="40.007" gradientUnits="userSpaceOnUse">
        <stop stop-color="#FCEABB"/>
        <stop offset="1" stop-color="#F8B500"/>
        </linearGradient>
        </defs>
    </symbol>   
    <symbol id="ben4" width="71" height="80" viewBox="0 0 71 80" fill="none" xmlns="http://www.w3.org/2000/svg">
        <path d="M11.0635 80C9.8204 79.489 9.37841 78.5497 9.37841 77.2238C9.40603 61.2569 9.39222 45.2901 9.39222 29.3094C9.39222 28.1768 9.39222 28.1768 8.27343 28.1768C6.40879 28.1768 4.55796 28.1768 2.69332 28.1768C1.33973 28.1768 0.524815 27.721 0.179511 26.6713C-0.207229 25.5525 0.096638 24.5995 0.994428 23.826C2.73476 22.3066 4.46128 20.7597 6.20161 19.2265C8.28725 17.3757 10.4005 15.5249 12.5 13.674C15 11.4779 17.5 9.28177 19.9861 7.07182C22.3204 5 24.6685 2.94199 26.9889 0.84254C28.2182 -0.262433 29.5718 -0.303869 30.8011 0.787292C33.7016 3.35635 36.6436 5.89779 39.5442 8.46685C42.5 11.0774 45.4419 13.7155 48.3977 16.326C51.2016 18.7983 54.0193 21.2707 56.837 23.7293C57.7071 24.489 58.0939 25.5801 57.7486 26.5608C57.3757 27.6243 56.5607 28.163 55.29 28.163C53.3425 28.163 51.3812 28.1906 49.4337 28.1492C48.7154 28.1354 48.4944 28.384 48.5497 29.0608C48.5911 29.6823 48.5497 30.3039 48.5635 30.9254C48.5773 31.4227 48.3701 31.6022 47.8729 31.616C45.6077 31.6851 43.3977 32.0442 41.2292 32.6519C37.279 33.7569 33.8121 35.7044 30.7734 38.4392C27.3618 41.5055 24.8895 45.2348 23.4116 49.5718C22.4447 52.4033 21.9475 55.3177 22.0027 58.3011C22.0994 64.1575 23.895 69.4337 27.4309 74.116C29.0469 76.2431 30.9668 78.0249 33.0663 79.6409C33.1906 79.7376 33.3011 79.8619 33.4116 79.9724C25.953 80 18.5082 80 11.0635 80Z" fill="url(#paint0_linear_4_916)"/>
        <path d="M46.0773 80C44.8895 79.7238 43.6878 79.6133 42.5138 79.268C38.9088 78.2182 35.732 76.4088 33.0939 73.7707C29.2817 69.9724 27.0856 65.3729 26.6298 59.9862C26.2983 56.105 26.9337 52.3757 28.5911 48.8674C30.5663 44.6685 33.6187 41.395 37.6519 39.0608C40.9116 37.1823 44.4475 36.2155 48.1629 36.2017C54.5303 36.174 59.9999 38.4669 64.406 43.1216C67.6795 46.5746 69.6132 50.6906 70.2209 55.4282C70.2347 55.5801 70.3038 55.7321 70.3452 55.8978C70.3452 57.4171 70.3452 58.9365 70.3452 60.442C70.3038 60.5939 70.2347 60.7459 70.2209 60.8978C70.069 62.5553 69.6546 64.1713 69.0469 65.7044C66.0773 73.1906 60.6353 77.8453 52.79 79.6685C52.127 79.8204 51.4364 79.9033 50.7596 80.0138C49.1988 80 47.6381 80 46.0773 80ZM46.4778 62.8591C46.4778 64.1713 46.4917 65.4834 46.4778 66.7818C46.4778 67.5552 46.243 67.721 45.4972 67.5C44.6546 67.2376 43.9088 66.7956 43.1491 66.3536C42.2375 65.8287 41.1602 66.105 40.6215 66.989C40.1243 67.8039 40.4005 69.0193 41.2292 69.558C42.4309 70.3315 43.6878 70.9807 45.1243 71.2431C46.4779 71.4917 46.464 71.547 46.4917 72.9006C46.5193 74.0608 47.1132 74.7376 48.1629 74.779C49.337 74.8343 50.0966 74.1713 50.1933 73.0111C50.2209 72.6658 50.2209 72.3204 50.2071 71.9751C50.1795 71.4917 50.3729 71.2155 50.8563 71.0773C53.4254 70.2762 55.1104 68.5221 56.0773 66.0635C57.2789 62.9558 56.464 59.1298 53.3149 57.1547C52.5414 56.6713 51.7403 56.3122 50.8839 56.0359C50.4972 55.9116 50.2348 55.732 50.2348 55.2762C50.2348 53.2321 50.2348 51.1878 50.2348 49.1437C50.2348 48.6326 50.4834 48.5635 50.8977 48.7431C51.2845 48.9088 51.5745 49.1989 51.9198 49.4475C52.5828 49.9309 53.453 49.9586 54.116 49.5304C54.7237 49.1437 55.0552 48.3564 54.8894 47.6105C54.7513 46.9475 54.3093 46.4779 53.7707 46.0912C53.1353 45.6354 52.4447 45.1934 51.685 45.0414C50.5662 44.8204 50.0828 44.337 50.1657 43.1216C50.2209 42.1685 49.185 41.395 48.2458 41.4503C47.2651 41.5055 46.5607 42.2376 46.5193 43.2597C46.5055 43.5635 46.5055 43.8536 46.5193 44.1575C46.5331 44.5856 46.3674 44.8205 45.9392 44.9724C43.7569 45.7044 42.2928 47.1823 41.4364 49.3094C40.4005 51.8923 41.2292 55.0138 43.4806 56.6437C44.2265 57.1823 44.9999 57.6796 45.8563 58.0249C46.3397 58.2182 46.5193 58.5221 46.5055 59.0332C46.464 60.2762 46.4778 61.5746 46.4778 62.8591Z" fill="url(#paint1_linear_4_916)"/>
        <path d="M50.1933 63.4807C50.1933 62.5 50.2071 61.5055 50.1933 60.5248C50.1795 59.9309 50.442 59.8619 50.9116 60.0967C52.1547 60.7044 52.7486 61.7541 52.79 63.0801C52.8453 64.6547 52.1685 65.9116 50.9254 66.8785C50.7734 67.0028 50.5801 67.1547 50.3591 67.0718C50.1243 66.9751 50.1933 66.7127 50.1933 66.5193C50.1933 65.4972 50.1933 64.4889 50.1933 63.4807Z" fill="url(#paint2_linear_4_916)"/>
        <path d="M46.4779 51.4503C46.4779 52.0856 46.4779 52.7348 46.4779 53.3702C46.4779 53.8812 46.2707 53.9641 45.8425 53.6878C44.6408 52.9282 44.4337 50.9254 45.4419 49.6685C45.5386 49.5442 45.6491 49.4199 45.7734 49.3232C45.9254 49.1851 46.0635 48.9779 46.2845 49.047C46.5193 49.1298 46.4779 49.3785 46.4779 49.5856C46.4779 50.221 46.4779 50.8425 46.4779 51.4503Z" fill="url(#paint3_linear_4_916)"/>
        <defs>
        <linearGradient id="paint0_linear_4_916" x1="0.0148926" y1="40.0024" x2="70.3452" y2="40.0024" gradientUnits="userSpaceOnUse">
        <stop stop-color="#FCEABB"/>
        <stop offset="1" stop-color="#F8B500"/>
        </linearGradient>
        <linearGradient id="paint1_linear_4_916" x1="0.0148926" y1="40.0024" x2="70.3452" y2="40.0024" gradientUnits="userSpaceOnUse">
        <stop stop-color="#FCEABB"/>
        <stop offset="1" stop-color="#F8B500"/>
        </linearGradient>
        <linearGradient id="paint2_linear_4_916" x1="0.0148926" y1="40.0024" x2="70.3452" y2="40.0024" gradientUnits="userSpaceOnUse">
        <stop stop-color="#FCEABB"/>
        <stop offset="1" stop-color="#F8B500"/>
        </linearGradient>
        <linearGradient id="paint3_linear_4_916" x1="0.0148926" y1="40.0024" x2="70.3452" y2="40.0024" gradientUnits="userSpaceOnUse">
        <stop stop-color="#FCEABB"/>
        <stop offset="1" stop-color="#F8B500"/>
        </linearGradient>
        </defs>
    </symbol>
    <symbol id="ben5" width="66" height="80" viewBox="0 0 66 80" fill="none" xmlns="http://www.w3.org/2000/svg">
        <g opacity="0.7">
        <path d="M49.779 80C33.1906 80 16.6022 80 0.0276243 80C0.0138122 79.7514 0 79.489 0 79.2403C0 53.2044 0 27.1685 0 1.1326C0 0 0 0 1.14641 0C10.0138 0 18.8812 0 27.7486 0C34.6409 0 41.5331 0 48.4254 0C49.8066 0 51.1188 0.248619 52.3343 0.939227C55.2072 2.59668 56.5608 5.09669 56.5608 8.38398C56.547 29.4751 56.5608 50.5801 56.5608 71.6713C56.5608 71.8785 56.5608 72.0856 56.547 72.2928C56.4503 74.5304 55.6077 76.4365 53.9365 77.9558C52.7486 79.0331 51.3398 79.6823 49.779 80ZM9.5442 28.1906C9.53039 38.4807 17.9144 46.9889 28.1215 47.0166C38.4807 47.0442 46.9889 38.6326 47.0166 28.3425C47.0304 17.9696 38.674 9.55801 28.3149 9.53039C17.9558 9.51657 9.55801 17.8591 9.5442 28.1906ZM28.3564 54.2127C24.7238 54.2127 21.105 54.2265 17.4724 54.1989C16.8232 54.1989 16.547 54.4199 16.5746 55.0829C16.616 55.953 16.5746 56.8232 16.5884 57.7072C16.5884 58.7155 16.616 58.7569 17.6381 58.7569C22.3066 58.7569 26.9613 58.7569 31.6298 58.7569C34.1298 58.7569 36.6436 58.7431 39.1436 58.7707C39.7514 58.7707 40.0276 58.5635 40 57.9282C39.9586 57.0304 40 56.1326 39.9862 55.2348C39.9862 54.268 39.9309 54.2127 38.9779 54.2127C35.4282 54.2127 31.8923 54.2127 28.3564 54.2127ZM28.2044 68.163C30.2762 68.163 32.3343 68.1492 34.4061 68.1768C35.0691 68.1906 35.3039 67.9282 35.2762 67.279C35.2348 66.2983 35.2486 65.3039 35.2762 64.3094C35.2901 63.8122 35.0691 63.605 34.5718 63.605C30.3729 63.6188 26.1602 63.6188 21.9613 63.605C21.4641 63.605 21.2569 63.8122 21.2569 64.3094C21.2707 65.3039 21.2845 66.2845 21.2431 67.279C21.2155 67.942 21.4779 68.1768 22.1271 68.163C24.1713 68.1492 26.1878 68.163 28.2044 68.163Z" fill="url(#paint0_linear_4_950)"/>
        <path d="M58.4669 80C58.5774 79.779 58.674 79.5442 58.8122 79.337C60.3867 77.0442 61.105 74.5304 61.0912 71.7542C61.0774 50.5939 61.0774 29.4475 61.0912 8.28729C61.0912 5.53868 60.4006 3.02486 58.8398 0.759669C58.7155 0.580111 58.4669 0.38674 58.6188 0.151934C58.7707 -0.0690608 59.047 0.0552486 59.2541 0.0966851C62.5414 0.732044 64.6409 2.67956 65.6354 5.85635C65.732 6.16022 65.8011 6.4779 65.884 6.78177C65.884 28.9365 65.884 51.0912 65.884 73.2459C65.5111 75.0276 64.7652 76.6022 63.4116 77.8729C62.2238 78.9917 60.8287 79.6409 59.268 80C59.0193 80 58.7431 80 58.4669 80Z" fill="url(#paint1_linear_4_950)"/>
        <path d="M28.2459 30.5249C29.2818 30.5249 30.3039 30.5387 31.3398 30.5249C31.9751 30.511 32.1961 30.8011 32.1409 31.4088C31.8646 34.268 31.4088 37.0995 30.3039 39.779C30.0414 40.4144 29.6823 41.0083 29.2818 41.5746C28.5497 42.6243 27.9558 42.5967 27.2376 41.5608C26.1602 40 25.5939 38.2321 25.1519 36.4227C24.7514 34.8204 24.5856 33.1768 24.4199 31.5332C24.337 30.663 24.4613 30.5387 25.3591 30.5387C26.326 30.5111 27.279 30.5249 28.2459 30.5249Z" fill="url(#paint2_linear_4_950)"/>
        <path d="M28.2735 25.9669C27.2376 25.9669 26.2017 25.953 25.1796 25.9669C24.6271 25.9807 24.3646 25.7597 24.4199 25.1934C24.6823 22.2099 25.1243 19.268 26.3536 16.5055C26.6851 15.7735 27.1133 15.0967 27.6657 14.5028C28.0801 14.0608 28.4945 14.0746 28.9088 14.5028C29.5442 15.1796 29.9862 15.9807 30.3453 16.837C31.4641 19.489 31.8784 22.3066 32.1547 25.1381C32.2099 25.732 31.9889 25.9807 31.3812 25.9669C30.3315 25.953 29.2956 25.9669 28.2735 25.9669Z" fill="url(#paint3_linear_4_950)"/>
        <path d="M42.1409 31.2017C41.8785 32.5691 41.3122 33.9779 40.5525 35.3039C39.3508 37.4033 37.721 39.0884 35.663 40.3453C35.4834 40.4558 35.2901 40.7183 35.0553 40.5387C34.8619 40.3868 35.0552 40.152 35.1105 39.9724C35.953 37.21 36.5332 34.4061 36.6713 31.5193C36.7127 30.6492 36.8094 30.5387 37.6934 30.5387C38.9503 30.5249 40.221 30.5387 41.4779 30.5387C41.837 30.5249 42.2238 30.5387 42.1409 31.2017Z" fill="url(#paint4_linear_4_950)"/>
        <path d="M17.1271 30.5249C17.7072 30.5249 18.2735 30.5249 18.8536 30.5249C19.7238 30.5387 19.8343 30.6354 19.8757 31.5193C19.9862 34.2265 20.5387 36.837 21.2569 39.4337C21.3536 39.7928 21.7403 40.2901 21.4641 40.4972C21.1188 40.7459 20.7459 40.2486 20.4282 40.0276C17.3343 37.9558 15.3729 35.0829 14.489 31.4779C14.2818 30.663 14.4061 30.5387 15.221 30.5249C15.8425 30.511 16.4779 30.5249 17.1271 30.5249Z" fill="url(#paint5_linear_4_950)"/>
        <path d="M17.0304 25.9668C16.395 25.9668 15.7459 25.9807 15.1105 25.9668C14.4061 25.953 14.2956 25.8149 14.4475 25.1243C14.9586 22.8729 15.9807 20.8563 17.4724 19.0884C18.4392 17.942 19.5856 16.9889 20.8425 16.1878C21.0221 16.0773 21.2293 15.8287 21.4503 15.9945C21.6575 16.1464 21.4641 16.3812 21.4227 16.5608C20.6354 19.2956 20 22.058 19.8895 24.9309C19.8481 25.884 19.7376 25.9668 18.7707 25.9668C18.1768 25.9807 17.5967 25.9668 17.0304 25.9668Z" fill="url(#paint6_linear_4_950)"/>
        <path d="M39.489 25.9669C38.7984 25.9669 38.1078 25.953 37.431 25.9669C36.9475 25.9807 36.7127 25.7459 36.6989 25.2624C36.5746 22.2238 35.9531 19.268 35.0553 16.3536C35.0138 16.2017 34.9033 16.0359 35.0691 15.9116C35.2072 15.8149 35.3315 15.9392 35.442 16.0083C37.8729 17.5138 39.8205 19.489 41.0221 22.1133C41.4779 23.1077 41.9061 24.1298 42.1271 25.221C42.2238 25.732 42.0718 25.9669 41.547 25.953C40.8564 25.9669 40.1658 25.9669 39.489 25.9669Z" fill="url(#paint7_linear_4_950)"/>
        </g>
        <defs>
        <linearGradient id="paint0_linear_4_950" x1="0" y1="40" x2="65.884" y2="40" gradientUnits="userSpaceOnUse">
        <stop stop-color="#FCEABB"/>
        <stop offset="1" stop-color="#F8B500"/>
        </linearGradient>
        <linearGradient id="paint1_linear_4_950" x1="0" y1="40" x2="65.884" y2="40" gradientUnits="userSpaceOnUse">
        <stop stop-color="#FCEABB"/>
        <stop offset="1" stop-color="#F8B500"/>
        </linearGradient>
        <linearGradient id="paint2_linear_4_950" x1="0" y1="40" x2="65.884" y2="40" gradientUnits="userSpaceOnUse">
        <stop stop-color="#FCEABB"/>
        <stop offset="1" stop-color="#F8B500"/>
        </linearGradient>
        <linearGradient id="paint3_linear_4_950" x1="0" y1="40" x2="65.884" y2="40" gradientUnits="userSpaceOnUse">
        <stop stop-color="#FCEABB"/>
        <stop offset="1" stop-color="#F8B500"/>
        </linearGradient>
        <linearGradient id="paint4_linear_4_950" x1="0" y1="40" x2="65.884" y2="40" gradientUnits="userSpaceOnUse">
        <stop stop-color="#FCEABB"/>
        <stop offset="1" stop-color="#F8B500"/>
        </linearGradient>
        <linearGradient id="paint5_linear_4_950" x1="0" y1="40" x2="65.884" y2="40" gradientUnits="userSpaceOnUse">
        <stop stop-color="#FCEABB"/>
        <stop offset="1" stop-color="#F8B500"/>
        </linearGradient>
        <linearGradient id="paint6_linear_4_950" x1="0" y1="40" x2="65.884" y2="40" gradientUnits="userSpaceOnUse">
        <stop stop-color="#FCEABB"/>
        <stop offset="1" stop-color="#F8B500"/>
        </linearGradient>
        <linearGradient id="paint7_linear_4_950" x1="0" y1="40" x2="65.884" y2="40" gradientUnits="userSpaceOnUse">
        <stop stop-color="#FCEABB"/>
        <stop offset="1" stop-color="#F8B500"/>
        </linearGradient>
        </defs>
    </symbol>
    <symbol id="ben6" width="81" height="80" viewBox="0 0 81 80" fill="none" xmlns="http://www.w3.org/2000/svg">
        <g opacity="0.7" clip-path="url(#clip0_4_933)">
        <path d="M1.70038 79.9861C0.0691341 79.1567 -0.373237 78.0784 0.317968 76.3642C1.07829 74.4703 2.21187 72.7976 3.58045 71.277C3.98135 70.8208 4.52049 70.6273 5.11493 70.5858C5.39141 70.572 5.66789 70.572 5.94437 70.572C28.7126 70.572 51.4809 70.5858 74.2492 70.5443C75.5901 70.5443 76.5302 71.0143 77.2905 72.0649C78.3964 73.5994 79.4194 75.1754 80.1106 76.9448C80.1106 77.8434 80.0968 78.742 80.1244 79.6405C80.1382 79.9447 80.0691 80.0414 79.765 79.9861C79.682 79.9723 79.5853 79.9861 79.4885 79.9861C53.5407 79.9861 27.6205 79.9861 1.70038 79.9861Z" fill="url(#paint0_linear_4_933)"/>
        <path d="M80.083 24.0954C79.6682 25.0216 79.3779 25.9893 78.9217 26.8878C77.9126 28.8509 76.6408 30.6065 75.1339 32.2101C74.7054 32.6663 74.1663 32.9013 73.5442 32.9428C73.2262 32.9566 72.8944 32.9566 72.5765 32.9566C50.9833 32.9566 29.39 32.9428 7.78298 32.9843C6.34527 32.9843 5.22552 32.6663 4.29931 31.5051C2.57129 29.3485 1.03682 27.109 0.207375 24.4548C-0.0552826 23.5977 1.37687e-05 23.5424 0.870931 23.5424C27.0952 23.5424 53.3057 23.5424 79.53 23.5424C79.7097 23.5424 79.9033 23.5562 80.083 23.5701C80.083 23.7221 80.083 23.9157 80.083 24.0954Z" fill="url(#paint1_linear_4_933)"/>
        <path d="M78.3273 18.8422C52.8219 18.8422 27.3026 18.8422 1.78332 18.8422C1.81097 18.5657 2.03215 18.5519 2.1704 18.469C5.2117 16.9483 8.26682 15.4553 11.3219 13.9347C13.8656 12.6629 16.4092 11.3634 18.9528 10.0916C21.4827 8.83358 24.0125 7.57559 26.5423 6.3176C30.3854 4.39605 34.2561 2.51597 38.0577 0.525304C39.4954 -0.221197 40.7811 -0.1659 42.1635 0.580601C45.2048 2.21184 48.3152 3.69102 51.398 5.21167C55.5176 7.24381 59.5957 9.3589 63.7153 11.4049C68.1943 13.6444 72.7009 15.8424 77.1938 18.0543C77.5808 18.2478 77.9541 18.469 78.3412 18.6763C78.355 18.7316 78.3411 18.7869 78.3273 18.8422Z" fill="url(#paint2_linear_4_933)"/>
        <path d="M9.40039 51.7435C9.40039 47.3337 9.41422 42.9099 9.38657 38.5001C9.38657 37.8227 9.56628 37.5738 10.2713 37.5877C14.46 37.6153 18.6349 37.6153 22.8236 37.5877C23.4319 37.5877 23.6669 37.7674 23.6669 38.4033C23.653 47.306 23.653 56.1949 23.6669 65.0976C23.6669 65.7059 23.501 65.9547 22.8512 65.9409C18.6487 65.9132 14.4324 65.9132 10.2298 65.9409C9.53863 65.9409 9.38657 65.6782 9.38657 65.0561C9.41422 60.6186 9.40039 56.1811 9.40039 51.7435Z" fill="url(#paint3_linear_4_933)"/>
        <path d="M70.7241 51.8403C70.7241 56.2364 70.7241 60.6186 70.7241 65.0147C70.7241 65.9271 70.7102 65.9409 69.7978 65.9409C65.6644 65.9409 61.5172 65.9409 57.3838 65.9409C56.4714 65.9409 56.4576 65.9271 56.4576 65.0147C56.4576 56.1811 56.4576 47.3613 56.4576 38.5277C56.4576 37.6153 56.4714 37.6015 57.3838 37.6015C61.5172 37.6015 65.6644 37.6015 69.7978 37.6015C70.7102 37.6015 70.7241 37.6153 70.7241 38.5277C70.7241 42.9652 70.7241 47.4028 70.7241 51.8403Z" fill="url(#paint4_linear_4_933)"/>
        <path d="M47.1263 51.8403C47.1263 56.2364 47.1263 60.6186 47.1263 65.0147C47.1263 65.9271 47.1125 65.9409 46.2001 65.9409C42.1082 65.9409 38.0163 65.9409 33.9243 65.9409C33.0119 65.9409 32.9981 65.9271 32.9981 65.0147C32.9981 56.1811 32.9981 47.3613 32.9981 38.5277C32.9981 37.6153 33.0119 37.6015 33.9243 37.6015C38.0163 37.6015 42.1082 37.6015 46.2001 37.6015C47.1125 37.6015 47.1263 37.6153 47.1263 38.5277C47.1263 42.9514 47.1263 47.389 47.1263 51.8403Z" fill="url(#paint5_linear_4_933)"/>
        </g>
        <defs>
        <linearGradient id="paint0_linear_4_933" x1="0.00341797" y1="39.9966" x2="80.1261" y2="39.9966" gradientUnits="userSpaceOnUse">
        <stop stop-color="#FCEABB"/>
        <stop offset="1" stop-color="#F8B500"/>
        </linearGradient>
        <linearGradient id="paint1_linear_4_933" x1="0.00341797" y1="39.9966" x2="80.1261" y2="39.9966" gradientUnits="userSpaceOnUse">
        <stop stop-color="#FCEABB"/>
        <stop offset="1" stop-color="#F8B500"/>
        </linearGradient>
        <linearGradient id="paint2_linear_4_933" x1="0.00341797" y1="39.9966" x2="80.1261" y2="39.9966" gradientUnits="userSpaceOnUse">
        <stop stop-color="#FCEABB"/>
        <stop offset="1" stop-color="#F8B500"/>
        </linearGradient>
        <linearGradient id="paint3_linear_4_933" x1="0.00341797" y1="39.9966" x2="80.1261" y2="39.9966" gradientUnits="userSpaceOnUse">
        <stop stop-color="#FCEABB"/>
        <stop offset="1" stop-color="#F8B500"/>
        </linearGradient>
        <linearGradient id="paint4_linear_4_933" x1="0.00341797" y1="39.9966" x2="80.1261" y2="39.9966" gradientUnits="userSpaceOnUse">
        <stop stop-color="#FCEABB"/>
        <stop offset="1" stop-color="#F8B500"/>
        </linearGradient>
        <linearGradient id="paint5_linear_4_933" x1="0.00341797" y1="39.9966" x2="80.1261" y2="39.9966" gradientUnits="userSpaceOnUse">
        <stop stop-color="#FCEABB"/>
        <stop offset="1" stop-color="#F8B500"/>
        </linearGradient>
        <clipPath id="clip0_4_933">
        <rect width="80.0968" height="80" fill="white"/>
        </clipPath>
        </defs>
    </symbol>
    <symbol id="phone" width="20" height="20" viewBox="0 0 20 20" fill="none" xmlns="http://www.w3.org/2000/svg">
        <path d="M15.3693 19.9998C11.2947 19.9945 7.38854 18.3704 4.50738 15.4835C1.62623 12.5966 0.00528135 8.6827 0 4.60005C0 3.38007 0.483674 2.21006 1.34462 1.3474C2.20556 0.484749 3.37326 0.000114293 4.59082 0.000114293C4.84864 -0.00185348 5.10604 0.0215923 5.35928 0.0701132C5.6041 0.106413 5.84478 0.166701 6.07784 0.250111C6.24176 0.307739 6.38783 0.407242 6.5016 0.538779C6.61538 0.670316 6.69291 0.829331 6.72655 1.0001L8.09381 7.00001C8.13066 7.16287 8.12623 7.33239 8.0809 7.49309C8.03557 7.65379 7.95081 7.80056 7.83433 7.92C7.70459 8.06 7.69461 8.07 6.46706 8.70999C7.45009 10.8708 9.17485 12.6061 11.3273 13.5999C11.976 12.3599 11.986 12.3499 12.1257 12.2199C12.245 12.1032 12.3914 12.0183 12.5518 11.9729C12.7122 11.9275 12.8814 11.923 13.0439 11.9599L19.0319 13.3299C19.1969 13.3683 19.3494 13.4481 19.4751 13.5618C19.6008 13.6755 19.6956 13.8194 19.7505 13.9799C19.8347 14.2173 19.8982 14.4615 19.9401 14.7099C19.9803 14.9612 20.0003 15.2154 20 15.4699C19.9816 16.6847 19.4843 17.8428 18.6167 18.6915C17.7491 19.5402 16.5817 20.0105 15.3693 19.9998Z" fill="#24173D"/>
    </symbol>
    <symbol id="ell" width="2" height="80" viewBox="0 0 2 80" fill="none" xmlns="http://www.w3.org/2000/svg">
        <ellipse cx="1" cy="40" rx="1" ry="40" fill="#3B393C"/>
    </symbol>
</svg>